<svg width="100%" height="100%" viewBox="0 0 164 78" fill="none" xmlns="http://www.w3.org/2000/svg">
<g id="Header/Logo">
<path id="Vector" d="M109.733 59.6537C109.57 60.3009 109.325 60.9251 109.004 61.5105C108.962 61.587 108.918 61.6627 108.874 61.7376C108.356 62.6117 107.674 63.3717 106.867 63.9726C106.788 64.0317 106.707 64.089 106.626 64.1447C106.101 64.5043 105.535 64.7938 104.942 65.0069C104.612 65.1255 104.273 65.2205 103.929 65.2908C102.868 65.5068 101.775 65.484 100.724 65.2241C100.481 65.164 100.241 65.0914 100.006 65.0069C99.3184 64.7601 98.6692 64.4111 98.0781 63.9704C97.9976 63.9103 97.9179 63.8485 97.8396 63.7849C97.0898 63.1774 96.4599 62.4286 95.983 61.5797H87.9153C88.1724 62.6059 88.5315 63.6048 88.9883 64.5601C89.0242 64.6345 89.0601 64.7086 89.0967 64.7825C89.3072 65.2043 89.5349 65.6151 89.7805 66.0137C90.6388 67.4067 91.7082 68.6518 92.9507 69.6999C93.0276 69.7648 93.1051 69.829 93.1834 69.8924C94.4123 70.8876 95.7805 71.6769 97.2385 72.2352C97.8023 72.451 98.379 72.6322 98.9665 72.7774C101.073 73.2985 103.264 73.344 105.39 72.911C106.181 72.7497 106.957 72.5233 107.709 72.2351C108.977 71.7499 110.179 71.0893 111.28 70.2687C111.359 70.2098 111.438 70.1501 111.516 70.0897C113.167 68.8085 114.545 67.1895 115.564 65.3329C115.605 65.2564 115.646 65.1797 115.687 65.1026C116.454 63.6476 116.988 62.0777 117.272 60.4533C117.356 59.9746 117.418 59.4912 117.457 59.0046L117.461 58.9544C117.602 57.1596 117.438 55.3563 116.979 53.625C115.066 56.1611 112.591 58.2392 109.733 59.6537Z" fill="#BCC0D0"/>
<path id="Vector_2" d="M109.702 41.5067C109.702 46.9966 105.463 50.9087 100.89 50.9087C96.3183 50.9087 92.0786 46.9966 92.0786 41.5067C92.0786 36.0167 96.3183 32.1046 100.89 32.1046L117.51 32.1121V24.375H100.89C91.7116 24.375 84.2709 32.0451 84.2709 41.5067C84.2709 50.9682 91.7116 58.6384 100.89 58.6384C110.069 58.6384 117.51 50.9682 117.51 41.5067V36.1055H109.702V41.5067Z" fill="#0B0B0F"/>
<path id="Vector_3" d="M46.3746 4.875H56.5144L31.5943 57.8703H28.5923L8.91309 13.4898H19.1196L30.1267 39.9067L46.3746 4.875Z" fill="#0B0B0F"/>
<path id="Vector_4" d="M79.662 44.4553H56.5139C57.0475 46.5246 58.1149 48.1316 59.7159 49.2763C61.3614 50.3771 63.3849 50.9274 65.7865 50.9274C69.033 50.9274 72.1016 49.8266 74.9924 47.6253L78.7281 53.7012C74.77 56.9593 70.3672 58.5883 65.5196 58.5883C60.4497 58.6764 56.1358 57.0473 52.578 53.7012C49.0647 50.311 47.3524 46.2384 47.4414 41.4833C47.3524 36.7723 49.0202 32.7217 52.4446 29.3315C55.869 25.9413 59.9606 24.2902 64.7191 24.3783C69.2554 24.3783 72.9689 25.8313 75.8596 28.7371C78.7948 31.643 80.2624 35.2533 80.2624 39.5681C80.2624 41.1531 80.0623 42.7822 79.662 44.4553ZM56.5139 38.1812H71.5235C71.479 36.1999 70.7674 34.6149 69.3888 33.4262C68.0546 32.1934 66.3869 31.577 64.3856 31.577C62.4732 31.577 60.8055 32.1713 59.3824 33.3601C57.9592 34.5489 57.0031 36.1559 56.5139 38.1812Z" fill="#0B0B0F"/>
<path id="Vector_5" d="M147.322 25.1015H155.594V57.7925H147.188V53.962C144.787 57.0439 141.296 58.585 136.715 58.585C132.09 58.585 128.265 56.9779 125.241 53.7639C122.217 50.5057 120.705 46.4111 120.705 41.48C120.705 36.5488 122.217 32.4762 125.241 29.2621C128.265 26.0041 132.09 24.375 136.715 24.375C141.384 24.375 144.92 25.982 147.322 29.1961V25.1015ZM144.32 48.0842C145.921 46.4992 146.721 44.2978 146.721 41.48C146.721 38.6622 145.921 36.4608 144.32 34.8757C142.719 33.2467 140.74 32.4322 138.383 32.4322C135.937 32.4322 133.891 33.2907 132.246 35.0078C130.644 36.6809 129.844 38.8383 129.844 41.48C129.844 44.1216 130.644 46.2791 132.246 47.9521C133.891 49.6252 135.937 50.4617 138.383 50.4617C140.784 50.4617 142.763 49.6692 144.32 48.0842Z" fill="#0B0B0F"/>
</g>
</svg>
