<svg width="17" height="16" viewBox="0 0 17 16" fill="none" xmlns="http://www.w3.org/2000/svg">
<g id="piggy bank, save money" clip-path="url(#clip0_6277_1048)">
<path id="Icon" d="M6.6 6.66667C6.6 7.03486 6.30153 7.33333 5.93334 7.33333C5.56515 7.33333 5.26667 7.03486 5.26667 6.66667C5.26667 6.29848 5.56515 6 5.93334 6C6.30153 6 6.6 6.29848 6.6 6.66667Z" fill="#71717A"/>
<path id="Icon_2" d="M15.8153 8C16.0921 8.24432 16.2667 8.60177 16.2667 9C16.2667 9.73638 15.6697 10.3333 14.9333 10.3333C14.5007 10.3333 14.1162 10.1273 13.8726 9.808M13.8726 9.808C14.1256 9.25772 14.2667 8.64533 14.2667 8C14.2667 5.60677 12.3266 3.66667 9.93334 3.66667H7.26667C7.18993 3.66667 7.11365 3.66866 7.03789 3.6726C6.46625 2.95839 5.49147 2.33333 4.26667 2.33333V4.87305C3.83983 5.28267 3.49669 5.77883 3.26545 6.33333H1.60001V9H3.04929C3.31146 10.1099 4.00041 11.0548 4.93334 11.6521V13.6667H7.60001V12.3333H9.60001V13.6667H12.2667V11.6521C12.9635 11.206 13.5242 10.5659 13.8726 9.808Z" stroke="#71717A"/>
</g>
<defs>
<clipPath id="clip0_6277_1048">
<rect width="16" height="16" fill="white" transform="translate(0.600006)"/>
</clipPath>
</defs>
</svg>
