<svg xmlns="http://www.w3.org/2000/svg" width="100%" height="100%" fill="none" viewBox="0 0 40 40">
  <g clip-path="url(#a)">
    <path fill="#F3BA2F" d="M13.009 17.127 20 10.136l6.995 6.995 4.068-4.068L20 2 8.94 13.06l4.069 4.067ZM2 20l4.068-4.068L10.136 20l-4.068 4.068L2 20Zm11.009 2.873L20 29.864l6.995-6.995 4.068 4.066L20 38 8.94 26.94l-.005-.005 4.074-4.062ZM29.864 20l4.068-4.068L38 20l-4.068 4.068L29.864 20Zm-5.738-.004h.003V20L20 24.13l-4.124-4.123L15.87 20l.007-.005.722-.724.351-.351L20 15.87l4.127 4.128-.001-.002Z"/>
  </g>
  <defs>
    <clipPath id="a">
      <path fill="#fff" d="M0 0h40v40H0z"/>
    </clipPath>
  </defs>
</svg>
