<svg xmlns="http://www.w3.org/2000/svg" width="100%" height="100%" fill="none" viewBox="0 0 40 40">
  <g clip-path="url(#a)">
    <g clip-path="url(#b)">
      <path fill="#F3BA2F" d="M20 40c11.046 0 20-8.954 20-20S31.046 0 20 0 0 8.954 0 20s8.954 20 20 20Z"/>
      <path fill="#fff" d="M15.145 18.005 20 13.15l4.858 4.857 2.825-2.825L20 7.5l-7.68 7.68 2.825 2.825ZM7.5 20l2.825-2.825L13.15 20l-2.825 2.825L7.5 20Zm7.645 1.995L20 26.85l4.858-4.858 2.825 2.824L20 32.5l-7.68-7.68-.004-.004 2.829-2.821ZM26.85 20l2.825-2.825L32.5 20l-2.825 2.825L26.85 20Zm-3.985-.003h.003V20L20 22.867l-2.864-2.862-.005-.005.005-.004.502-.502.243-.244L20 17.133l2.866 2.866-.001-.002Z"/>
    </g>
  </g>
  <defs>
    <clipPath id="a">
      <path fill="#fff" d="M0 0h40v40H0z"/>
    </clipPath>
    <clipPath id="b">
      <rect width="40" height="40" fill="#fff" rx="9.051"/>
    </clipPath>
  </defs>
</svg>
