<svg width="17" height="16" viewBox="0 0 17 16" fill="none" xmlns="http://www.w3.org/2000/svg">
<g id="gift">
<path id="Vector" d="M13.7334 8V14.6667H3.06673V8M8.40006 14.6667V4.66667M8.40006 4.66667H5.40006C4.95804 4.66667 4.53411 4.49107 4.22155 4.17851C3.90899 3.86595 3.7334 3.44203 3.7334 3C3.7334 2.55797 3.90899 2.13405 4.22155 1.82149C4.53411 1.50893 4.95804 1.33333 5.40006 1.33333C7.7334 1.33333 8.40006 4.66667 8.40006 4.66667ZM8.40006 4.66667H11.4001C11.8421 4.66667 12.266 4.49107 12.5786 4.17851C12.8911 3.86595 13.0667 3.44203 13.0667 3C13.0667 2.55797 12.8911 2.13405 12.5786 1.82149C12.266 1.50893 11.8421 1.33333 11.4001 1.33333C9.06673 1.33333 8.40006 4.66667 8.40006 4.66667ZM1.7334 4.66667H15.0667V8H1.7334V4.66667Z" stroke="#71717A" stroke-linecap="round" stroke-linejoin="round"/>
</g>
</svg>
