<svg xmlns="http://www.w3.org/2000/svg" width="100%" height="100%" fill="none" viewBox="0 0 40 40">
  <g clip-path="url(#a)">
    <g clip-path="url(#b)">
      <path fill="#F7931A" d="M20 40c11.046 0 20-8.954 20-20S31.046 0 20 0 0 8.954 0 20s8.954 20 20 20Z"/>
      <path fill="#fff" d="M28.986 17.525c.393-2.62-1.603-4.029-4.33-4.969l.884-3.55-2.16-.537-.863 3.456c-.567-.143-1.15-.275-1.73-.408l.868-3.478-2.16-.539-.885 3.549c-.47-.108-.933-.213-1.38-.325l.003-.011-2.98-.744-.575 2.307s1.603.368 1.57.39c.874.219 1.032.798 1.006 1.258l-1.008 4.044c.06.015.138.037.225.07l-.229-.055-1.412 5.665c-.107.265-.379.663-.991.512.022.031-1.57-.391-1.57-.391l-1.073 2.472 2.813.701c.522.132 1.035.27 1.538.398l-.893 3.59 2.159.538.885-3.55c.59.158 1.162.306 1.722.446l-.883 3.535 2.16.537.894-3.582c3.685.697 6.455.416 7.622-2.916.94-2.683-.047-4.232-1.985-5.24 1.412-.326 2.475-1.254 2.758-3.173Zm-4.937 6.923c-.666 2.683-5.185 1.232-6.65.868l1.187-4.756c1.465.366 6.162 1.09 5.463 3.888Zm.669-6.962c-.61 2.441-4.37 1.2-5.588.896l1.075-4.312c1.219.304 5.148.87 4.513 3.416Z"/>
    </g>
  </g>
  <defs>
    <clipPath id="a">
      <path fill="#fff" d="M0 0h40v40H0z"/>
    </clipPath>
    <clipPath id="b">
      <rect width="40" height="40" fill="#fff" rx="9.051"/>
    </clipPath>
  </defs>
</svg>
