<svg width="100%" height="100%" viewBox="0 0 40 40" fill="none" xmlns="http://www.w3.org/2000/svg">
<g clip-path="url(#clip0_6675_71430)">
<path d="M18.941 0H21.0251C23.1992 0.144 25.3613 0.578 27.3814 1.394C32.3817 3.36 36.5079 7.438 38.522 12.422C41.2941 19.058 40.1041 27.152 35.4758 32.674C32.3437 36.518 27.7374 39.136 22.8212 39.802C18.207 40.46 13.3647 39.466 9.41652 36.972C6.37237 35.076 3.85224 32.348 2.22016 29.152C0.126055 25.138 -0.509977 20.394 0.410069 15.966C1.39412 11.058 4.32427 6.58 8.41047 3.694C11.4706 1.48 15.1808 0.234 18.941 0ZM17.7009 0.906C11.6166 1.604 6.02435 5.436 3.1242 10.824C1.16211 14.406 0.378068 18.63 0.970097 22.676C1.64013 27.548 4.29026 32.106 8.17046 35.122C11.1246 37.452 14.7788 38.882 18.531 39.162C22.7812 39.5 27.1334 38.366 30.6616 35.972C34.9878 33.108 38.058 28.424 38.94 23.31C39.448 20.296 39.276 17.156 38.344 14.242C37.0139 10.004 34.1638 6.258 30.4236 3.858C26.7054 1.418 22.1152 0.36 17.7009 0.906Z" fill="#00206B"/>
<path d="M18.1829 8.78203C21.6611 8.20003 25.3913 9.34003 27.8934 11.836C30.1135 13.932 31.4096 16.978 31.3456 20.032C31.3896 23.07 30.0875 26.092 27.8774 28.17C25.4713 30.562 21.9331 31.704 18.5789 31.262C15.4188 30.882 12.4606 29.086 10.6645 26.456C8.67644 23.64 8.12841 19.892 9.16046 16.61C10.3685 12.57 14.0167 9.41203 18.1829 8.78203ZM18.8769 9.47403C18.8789 10.468 18.8809 11.462 18.879 12.456C19.375 12.456 19.871 12.456 20.367 12.458C20.369 11.438 20.371 10.418 20.367 9.40003C19.871 9.41603 19.373 9.44003 18.8769 9.47403ZM22.4551 12.504C23.7612 12.68 25.1653 12.88 26.2073 13.762C27.7974 15.19 27.5914 18.188 25.6453 19.224C26.8113 19.496 27.9654 20.274 28.2534 21.498C28.6274 23.104 28.3294 25.032 27.0394 26.164C25.7613 27.216 24.0312 27.354 22.4511 27.504C22.4591 28.434 22.4551 29.364 22.4531 30.296C25.7793 29.482 28.6494 27.006 29.8695 23.802C31.0276 20.846 30.7535 17.368 29.1195 14.646C27.6754 12.19 25.2193 10.386 22.4611 9.69403C22.4531 10.63 22.4531 11.566 22.4551 12.504ZM12.5286 12.464C13.9687 12.534 15.4108 12.518 16.8528 12.516C16.8528 11.638 16.8548 10.762 16.8488 9.88403C15.2348 10.408 13.7967 11.348 12.5286 12.464ZM12.3566 12.58C11.9746 13.05 11.2666 13.938 10.8465 14.724C9.15246 17.61 8.96045 21.314 10.3745 24.35C11.5946 27.072 14.0147 29.19 16.8488 30.102C16.8528 29.226 16.8508 28.35 16.8508 27.476C15.4048 27.462 13.9547 27.514 12.5106 27.436C12.5266 26.63 12.7166 25.842 12.9907 25.082C13.6987 25.068 14.4367 25.192 15.1208 24.96C15.5208 24.624 15.4068 24.068 15.4288 23.608C15.4068 20.978 15.4388 18.348 15.4148 15.72C15.4408 15.296 15.1748 14.838 14.7347 14.754C14.0087 14.608 13.2607 14.666 12.5266 14.66C12.4406 14.068 12.4306 13.47 12.4226 12.872C12.4226 12.872 12.4326 12.684 12.3686 12.562L12.3566 12.58ZM18.939 14.84V18.716C20.233 18.692 21.6691 18.836 22.8011 18.084C23.7412 17.468 23.6812 15.91 22.7111 15.356C21.5771 14.686 20.195 14.876 18.939 14.84ZM18.939 20.802V25.102C20.537 24.974 22.3291 25.242 23.7192 24.278C24.7132 23.618 24.5932 21.984 23.5692 21.412C22.1771 20.58 20.485 20.844 18.939 20.802ZM18.8809 27.534C18.8809 28.528 18.8789 29.524 18.8769 30.518C19.395 30.552 19.911 30.572 20.429 30.588C20.433 29.57 20.431 28.552 20.431 27.534H18.8809Z" fill="#00206B"/>
<path d="M17.8168 1.94402C21.321 1.56802 24.9492 2.10202 28.0973 3.71802C32.1475 5.70402 35.3857 9.27402 36.9818 13.492C38.6098 17.716 38.5738 22.548 36.8878 26.752C34.3236 33.378 27.5533 38.142 20.4249 38.152C16.2387 38.304 12.0265 36.896 8.74834 34.292C5.25217 31.574 2.83405 27.512 2.08801 23.146C1.32597 18.822 2.18001 14.228 4.49213 10.49C7.31827 5.80202 12.3805 2.56202 17.8168 1.94402ZM17.2068 7.81202C14.3586 8.45402 11.7545 10.136 10.0084 12.478C8.08031 15.014 7.19627 18.312 7.59028 21.47C7.9603 24.85 9.80639 28.038 12.5525 30.04C15.1227 31.972 18.4628 32.82 21.643 32.384C25.5732 31.904 29.1874 29.402 31.0215 25.892C32.3955 23.388 32.7715 20.412 32.2675 17.618C31.6255 14.23 29.5094 11.152 26.5652 9.35602C23.8091 7.64002 20.3689 7.09002 17.2068 7.81202Z" fill="#EBA809"/>
</g>
<defs>
<clipPath id="clip0_6675_71430">
<rect width="40" height="40" fill="white"/>
</clipPath>
</defs>
</svg>
