<svg width="16" height="16" viewBox="0 0 16 16" fill="none" xmlns="http://www.w3.org/2000/svg">
<g id="caret-sort">
<rect width="16" height="16" rx="5" fill="#F5F5F5"/>
<path id="Vector" fill-rule="evenodd" clip-rule="evenodd" d="M5.26071 5.79391C5.07325 5.98137 5.07325 6.28528 5.26071 6.47274C5.44817 6.66019 5.75208 6.66019 5.93954 6.47274L8.00012 4.41214L10.0607 6.47274C10.2482 6.66019 10.5521 6.66019 10.7395 6.47274C10.927 6.28528 10.927 5.98137 10.7395 5.79391L8.33954 3.39391C8.24951 3.3039 8.12742 3.25333 8.00012 3.25333C7.87282 3.25333 7.75073 3.3039 7.66071 3.39391L5.26071 5.79391ZM10.7395 10.2061C10.927 10.0186 10.927 9.7147 10.7395 9.52725C10.5521 9.3398 10.2482 9.3398 10.0607 9.52725L8.00012 11.5878L5.93954 9.52725C5.75208 9.3398 5.44817 9.3398 5.26071 9.52725C5.07325 9.7147 5.07325 10.0186 5.26071 10.2061L7.66071 12.6061C7.84817 12.7935 8.15208 12.7935 8.33954 12.6061L10.7395 10.2061Z" fill="#71717A"/>
</g>
</svg>
