<svg width="17" height="16" viewBox="0 0 17 16" fill="none" xmlns="http://www.w3.org/2000/svg">
<g id="caret-sort">
<path id="Vector" fill-rule="evenodd" clip-rule="evenodd" d="M5.92721 5.79391C5.73976 5.98137 5.73976 6.28528 5.92721 6.47274C6.11467 6.66019 6.41858 6.66019 6.60604 6.47274L8.66663 4.41214L10.7272 6.47274C10.9147 6.66019 11.2186 6.66019 11.4061 6.47274C11.5935 6.28528 11.5935 5.98137 11.4061 5.79391L9.00604 3.39391C8.91601 3.3039 8.79392 3.25333 8.66663 3.25333C8.53932 3.25333 8.41723 3.3039 8.32721 3.39391L5.92721 5.79391ZM11.4061 10.2061C11.5935 10.0186 11.5935 9.7147 11.4061 9.52725C11.2186 9.3398 10.9147 9.3398 10.7272 9.52725L8.66663 11.5878L6.60604 9.52725C6.41858 9.3398 6.11467 9.3398 5.92721 9.52725C5.73976 9.7147 5.73976 10.0186 5.92721 10.2061L8.32721 12.6061C8.51467 12.7935 8.81858 12.7935 9.00604 12.6061L11.4061 10.2061Z" fill="#71717A"/>
</g>
</svg>
