<svg width="14" height="15" viewBox="0 0 14 15" fill="none" xmlns="http://www.w3.org/2000/svg">
<path fill-rule="evenodd" clip-rule="evenodd" d="M0.0668945 9.63338C0.0668945 10.517 0.783236 11.2334 1.66689 11.2334H3.26689V10.1668H1.66689C1.37235 10.1668 1.13356 9.92793 1.13356 9.63338V2.16671C1.13356 1.87216 1.37235 1.63338 1.66689 1.63338H9.13356C9.42811 1.63338 9.66689 1.87216 9.66689 2.16671V3.76667H4.86689C3.98325 3.76667 3.26689 4.48301 3.26689 5.36667V12.8333C3.26689 13.7169 3.98325 14.4333 4.86689 14.4333H12.3336C13.2172 14.4333 13.9336 13.7169 13.9336 12.8333V5.36667C13.9336 4.48301 13.2172 3.76667 12.3336 3.76667H10.7336V2.16671C10.7336 1.28305 10.0172 0.566711 9.13356 0.566711H1.66689C0.783236 0.566711 0.0668945 1.28305 0.0668945 2.16671V9.63338ZM4.33356 5.36667C4.33356 5.07212 4.57235 4.83334 4.86689 4.83334H12.3336C12.6281 4.83334 12.8669 5.07212 12.8669 5.36667V12.8333C12.8669 13.1279 12.6281 13.3666 12.3336 13.3666H4.86689C4.57235 13.3666 4.33356 13.1279 4.33356 12.8333V5.36667Z" fill="#09090B"/>
</svg>
