<svg width="100%" height="100%" viewBox="0 0 40 40" fill="none" xmlns="http://www.w3.org/2000/svg">
<path d="M20.0142 0L3 10V30L20.0142 40L37 30V10L20.0142 0ZM31.9609 27.0317L19.9858 34.0634L8.03913 27.0317V12.9683L20.0142 5.9366L31.9609 12.9683V27.0317Z" fill="#002D74"/>
<path d="M20.0142 40L37 30V10L20.0142 0V5.9366L31.9609 12.9683V27.0605L19.9858 34.0922V40H20.0142Z" fill="url(#paint0_linear_6675_71457)"/>
<path d="M19.9858 0L3 10V30L19.9858 40V34.0634L8.03913 27.0317V12.9395L19.9858 5.9366V0Z" fill="url(#paint1_linear_6675_71457)"/>
<path d="M27.9409 24.6686L20.0142 29.3372L12.0591 24.6686V15.3314L20.0142 10.6628L27.9409 15.3314L24.6286 17.2911L19.9858 14.5533L15.3714 17.2911V22.7378L20.0142 25.4755L24.657 22.7378L27.9409 24.6686Z" fill="#002D74"/>
<defs>
<linearGradient id="paint0_linear_6675_71457" x1="20.0377" y1="40.0009" x2="20.0377" y2="20.0004" gradientUnits="userSpaceOnUse">
<stop stop-color="#002D74"/>
<stop offset="1" stop-color="#002D74" stop-opacity="0"/>
</linearGradient>
<linearGradient id="paint1_linear_6675_71457" x1="20.0132" y1="0" x2="20.0132" y2="20.0004" gradientUnits="userSpaceOnUse">
<stop stop-color="#002D74"/>
<stop offset="1" stop-color="#002D74" stop-opacity="0"/>
</linearGradient>
</defs>
</svg>
