<svg width="10" height="10" viewBox="0 0 10 10" fill="none" xmlns="http://www.w3.org/2000/svg">
<g id="cross-1">
<path id="Vector" fill-rule="evenodd" clip-rule="evenodd" d="M8.56899 1.90253C8.69912 1.77236 8.69912 1.5613 8.56899 1.43113C8.43879 1.30095 8.22772 1.30095 8.09752 1.43113L4.99992 4.52876L1.90229 1.43113C1.77211 1.30095 1.56106 1.30095 1.43089 1.43113C1.30071 1.5613 1.30071 1.77236 1.43089 1.90253L4.52851 5.00016L1.43089 8.09776C1.30071 8.22796 1.30071 8.43903 1.43089 8.56923C1.56106 8.69936 1.77211 8.69936 1.90229 8.56923L4.99992 5.47157L8.09752 8.56923C8.22772 8.69936 8.43879 8.69936 8.56899 8.56923C8.69912 8.43903 8.69912 8.22796 8.56899 8.09776L5.47133 5.00016L8.56899 1.90253Z" fill="#09090B"/>
</g>
</svg>
