<svg width="100%" height="100%" viewBox="0 0 40 40" fill="none" xmlns="http://www.w3.org/2000/svg">
<g clip-path="url(#clip0_6675_71442)">
<path d="M20 40C31.0457 40 40 31.0457 40 20C40 8.9543 31.0457 0 20 0C8.9543 0 0 8.9543 0 20C0 31.0457 8.9543 40 20 40Z" fill="#008CE7"/>
<path d="M23.8575 10.005H14.7625L14.01 14.2138L22.2125 14.2263C26.2513 14.2263 27.45 15.6925 27.4113 18.1263C27.3938 19.3738 26.85 21.4838 26.62 22.1638C25.9988 23.9888 24.7188 26.0663 19.9213 26.06L11.9488 26.055L11.1963 30.2688H20.2675C23.4663 30.2688 24.8288 29.895 26.2675 29.2313C29.46 27.7588 31.3613 24.605 32.125 20.4888C33.2575 14.3638 31.845 10.005 23.8563 10.005H23.8575Z" fill="white"/>
<path d="M19.7586 19.7475C20.0549 18.5162 20.1486 18.0225 20.1486 18.0225H10.8411C8.46113 18.0225 8.12113 19.5725 7.89488 20.51C7.59863 21.7362 7.50488 22.2362 7.50488 22.2362H16.8136C19.1924 22.2362 19.5324 20.6862 19.7586 19.7475Z" fill="white"/>
</g>
<defs>
<clipPath id="clip0_6675_71442">
<rect width="40" height="40" fill="white"/>
</clipPath>
</defs>
</svg>
