<svg width="100%" height="100%" viewBox="0 0 40 40" fill="none" xmlns="http://www.w3.org/2000/svg">
<g clip-path="url(#clip0_6675_70517)">
<path d="M8.15234 21.7838C12.4925 24.0946 17.0214 26.5134 20.5193 28.3851L32.7851 21.7838C28.3439 28.3985 24.6434 33.9054 20.5193 40C16.388 33.9189 11.8254 27.2087 8.15234 21.7838ZM8.62409 19.9592L20.5327 13.5883L32.2864 19.9126L20.5394 26.2905L8.62409 19.9592ZM20.5193 11.5472L8.15234 18.0743L20.4654 0L32.7851 18.1148L20.5193 11.5472Z" fill="#3AB83A"/>
<path d="M20.5193 28.3851L32.7851 21.7838C28.3438 28.3985 20.5193 40 20.5193 40V28.3851ZM20.5327 13.5883L32.2863 19.9126L20.5394 26.2905L20.5327 13.5883ZM20.5193 11.5477L20.4653 0L32.7851 18.1148L20.5193 11.5477Z" fill="#0B8311"/>
<path d="M8.62402 19.9593L20.5333 20.9391L32.287 19.9188L20.5394 26.2972L8.62402 19.9593Z" fill="#0B8311"/>
<path d="M20.5327 20.9391L32.2864 19.9188L20.5394 26.2972L20.5327 20.9391Z" fill="#146714"/>
</g>
<defs>
<clipPath id="clip0_6675_70517">
<rect width="40" height="40" fill="white"/>
</clipPath>
</defs>
</svg>
