<svg xmlns="http://www.w3.org/2000/svg" width="100%" height="100%" fill="none" viewBox="0 0 40 40">
  <g clip-path="url(#a)">
    <g clip-path="url(#b)">
      <path fill="#627EEA" d="M20 40c11.046 0 20-8.954 20-20S31.046 0 20 0 0 8.954 0 20s8.954 20 20 20Z"/>
      <path fill="#fff" fill-opacity=".602" d="M20.623 5v11.088l9.37 4.187L20.624 5Z"/>
      <path fill="#fff" d="M20.622 5 11.25 20.275l9.372-4.188V5Z"/>
      <path fill="#fff" fill-opacity=".602" d="M20.623 27.46v7.534L30 22.02l-9.377 5.44Z"/>
      <path fill="#fff" d="M20.622 34.994V27.46l-9.372-5.44 9.372 12.974Z"/>
      <path fill="#fff" fill-opacity=".2" d="m20.623 25.716 9.37-5.44-9.37-4.186v9.626Z"/>
      <path fill="#fff" fill-opacity=".602" d="m11.25 20.275 9.372 5.441V16.09l-9.372 4.185Z"/>
    </g>
  </g>
  <defs>
    <clipPath id="a">
      <path fill="#fff" d="M0 0h40v40H0z"/>
    </clipPath>
    <clipPath id="b">
      <rect width="40" height="40" fill="#fff" rx="9.051"/>
    </clipPath>
  </defs>
</svg>
