<svg width="16" height="16" viewBox="0 0 16 16" fill="none" xmlns="http://www.w3.org/2000/svg">
<g id="banknote">
<path id="Vector" d="M3.99998 8H4.00665M12 8H12.0066M2.66665 4H13.3333C14.0697 4 14.6666 4.59695 14.6666 5.33333V10.6667C14.6666 11.403 14.0697 12 13.3333 12H2.66665C1.93027 12 1.33331 11.403 1.33331 10.6667V5.33333C1.33331 4.59695 1.93027 4 2.66665 4ZM9.33331 8C9.33331 8.73638 8.73636 9.33333 7.99998 9.33333C7.2636 9.33333 6.66665 8.73638 6.66665 8C6.66665 7.26362 7.2636 6.66667 7.99998 6.66667C8.73636 6.66667 9.33331 7.26362 9.33331 8Z" stroke="#71717A" stroke-linecap="round" stroke-linejoin="round"/>
</g>
</svg>
