<svg width="23" height="22" viewBox="0 0 23 22" fill="none" xmlns="http://www.w3.org/2000/svg">
<g id="layers">
<path id="Vector" fill-rule="evenodd" clip-rule="evenodd" d="M11.7731 1.20199C11.543 1.066 11.2571 1.066 11.027 1.20199L2.9603 5.96866C2.73703 6.10059 2.60004 6.34065 2.60004 6.6C2.60004 6.85935 2.73703 7.09941 2.9603 7.23134L11.027 11.998C11.2571 12.134 11.543 12.134 11.7731 11.998L19.8397 7.23134C20.0631 7.09941 20.2001 6.85935 20.2001 6.6C20.2001 6.34065 20.0631 6.10059 19.8397 5.96866L11.7731 1.20199ZM11.4 10.5149L4.77487 6.6L11.4 2.68513L18.0252 6.6L11.4 10.5149ZM2.70203 10.9936C2.90807 10.6449 3.35776 10.5293 3.70643 10.7353L11.4 15.2815L19.0936 10.7353C19.4423 10.5293 19.892 10.6449 20.098 10.9936C20.3041 11.3423 20.1885 11.792 19.8397 11.998L11.7731 16.7647C11.543 16.9007 11.2571 16.9007 11.027 16.7647L2.9603 11.998C2.61163 11.792 2.49598 11.3423 2.70203 10.9936ZM2.70202 15.3935C2.90807 15.0449 3.35775 14.9293 3.70643 15.1353L11.4 19.6815L19.0936 15.1353C19.4423 14.9293 19.892 15.0449 20.098 15.3935C20.3041 15.7423 20.1885 16.192 19.8397 16.3981L11.7731 21.1647C11.543 21.3007 11.2571 21.3007 11.027 21.1647L2.9603 16.3981C2.61161 16.192 2.49598 15.7423 2.70202 15.3935Z" fill="#09090B"/>
</g>
</svg>
