<svg xmlns="http://www.w3.org/2000/svg" width="100%" height="100%" fill="none" viewBox="0 0 40 40">
  <g clip-path="url(#a)">
    <g clip-path="url(#b)">
      <path fill="#00B956" d="M16.392 16.715a2.478 2.478 0 1 1 0-4.953 2.476 2.476 0 0 1 0 4.953ZM20.19.379C9.246.379.379 9.247.379 20.189c0 9.496 6.683 17.432 15.599 19.364V21.774c.02-.859.704-1.55 1.555-1.582l.824-.002h1.678a.218.218 0 0 0 .217-.206L20.254.382m13.588 30.615a2.478 2.478 0 0 1-2.476-2.478 2.477 2.477 0 0 1 4.953 0 2.478 2.478 0 0 1-2.477 2.478Zm-5.805 0a2.477 2.477 0 0 1 0-4.951 2.476 2.476 0 1 1 0 4.951Zm-5.807 0a2.48 2.48 0 0 1-2.478-2.478 2.478 2.478 0 0 1 4.956 0 2.477 2.477 0 0 1-2.478 2.478Zm.405-30.47v20.441l-.005.005a1.614 1.614 0 0 1-1.615 1.598h-2.438a.219.219 0 0 0-.22.219v17.128c.604.055 1.212.086 1.832.086 10.942 0 19.81-8.872 19.81-19.814C40 10.076 32.424 1.732 22.636.527Z"/>
    </g>
  </g>
  <defs>
    <clipPath id="a">
      <path fill="#fff" d="M0 0h40v40H0z"/>
    </clipPath>
    <clipPath id="b">
      <path fill="#fff" d="M0 0h40v40H0z"/>
    </clipPath>
  </defs>
</svg>
