<svg width="16" height="16" viewBox="0 0 16 16" fill="none" xmlns="http://www.w3.org/2000/svg">
<g id="mixer-horizontal">
<path id="Vector" d="M3.74315 5.2318L3.65596 4.80003L3.74315 4.36826C3.94305 3.37845 4.81852 2.63336 5.86689 2.63336C6.91527 2.63336 7.79074 3.37845 7.99063 4.36826L8.07783 4.80003L7.99063 5.2318C7.79074 6.2216 6.91527 6.9667 5.86689 6.9667C4.81852 6.9667 3.94305 6.2216 3.74315 5.2318ZM3.20417 4.76688L3.54164 4.80003L3.20418 4.83317L3.20023 4.83336H1.60023C1.58182 4.83336 1.56689 4.81844 1.56689 4.80003C1.56689 4.78162 1.58182 4.7667 1.60023 4.7667H3.20023L3.20417 4.76688ZM8.52961 4.83317L8.19215 4.80003L8.52962 4.76688L8.53356 4.7667H14.4002C14.4186 4.7667 14.4336 4.78165 14.4336 4.80003C14.4336 4.81841 14.4186 4.83336 14.4002 4.83336H8.53356L8.52961 4.83317ZM12.7963 11.2332L12.4585 11.2L12.7963 11.1669L12.8002 11.1667H14.4002C14.4186 11.1667 14.4336 11.1817 14.4336 11.2C14.4336 11.2184 14.4186 11.2334 14.4002 11.2334H12.8002L12.7963 11.2332ZM12.2573 10.7682L12.3445 11.2L12.2573 11.6318C12.0574 12.6216 11.1819 13.3667 10.1336 13.3667C9.08519 13.3667 8.20972 12.6216 8.00982 11.6318L7.92262 11.2L8.00982 10.7682C8.20972 9.77846 9.08519 9.03336 10.1336 9.03336C11.1819 9.03336 12.0574 9.77847 12.2573 10.7682ZM7.47083 11.1669L7.80845 11.2L7.47083 11.2332L7.4669 11.2334H1.60023C1.58185 11.2334 1.56689 11.2184 1.56689 11.2C1.56689 11.1816 1.58185 11.1667 1.60023 11.1667H7.4669L7.47083 11.1669ZM5.86689 2.70003C4.70709 2.70003 3.76689 3.64023 3.76689 4.80003C3.76689 5.95983 4.70709 6.90003 5.86689 6.90003C7.0267 6.90003 7.9669 5.95983 7.9669 4.80003C7.9669 3.64023 7.0267 2.70003 5.86689 2.70003ZM10.1336 9.10003C8.97376 9.10003 8.03356 10.0402 8.03356 11.2C8.03356 12.3598 8.97375 13.3 10.1336 13.3C11.2933 13.3 12.2336 12.3598 12.2336 11.2C12.2336 10.0402 11.2933 9.10003 10.1336 9.10003Z" fill="#09090B" stroke="#18181B"/>
</g>
</svg>
