<svg xmlns="http://www.w3.org/2000/svg" width="100%" height="100%" fill="none" viewBox="0 0 40 40">
  <g clip-path="url(#a)">
    <path fill="#fff" d="M36.567 9.675 20.433.119a.848.848 0 0 0-.866 0L3.433 9.675a.893.893 0 0 0-.433.77v19.11c0 .318.165.612.433.77l16.134 9.556a.849.849 0 0 0 .866 0l16.134-9.556a.893.893 0 0 0 .433-.77v-19.11a.893.893 0 0 0-.433-.77Zm-23.16 19.808a.88.88 0 0 1-.867.889.87.87 0 0 1-.834-.652L9.19 20.392v6.762a.88.88 0 0 1-.867.889.878.878 0 0 1-.866-.89V13.845c0-.444.32-.82.75-.88.43-.06.836.215.951.643l2.515 9.329v-11.82c0-.49.389-.889.867-.889s.866.398.866.889v18.367Zm12.145-20.62a.855.855 0 0 1-1.19.3l-4.26-2.641-3.022 1.852v10.661h6.759c.478 0 .866.399.866.89 0 .49-.388.888-.866.888H17.08v11.338c0 .491-.388.89-.866.89a.878.878 0 0 1-.867-.89V7.87c0-.313.16-.603.422-.763l3.89-2.385a.85.85 0 0 1 .893.002l4.706 2.917c.41.254.542.8.294 1.221Zm7.732 4.792a.862.862 0 0 1-.742.43.842.842 0 0 1-.448-.13l-1.552-.962V29.26a.88.88 0 0 1-.867.89.878.878 0 0 1-.866-.89V11.92l-2.216-1.374a.902.902 0 0 1-.294-1.22.854.854 0 0 1 1.19-.302l5.501 3.41c.41.254.541.801.294 1.221Z"/>
  </g>
  <defs>
    <clipPath id="a">
      <path fill="#fff" d="M0 0h40v40H0z"/>
    </clipPath>
  </defs>
</svg>
