<svg width="100%" height="100%" viewBox="0 0 28 28" fill="currentColor" xmlns="http://www.w3.org/2000/svg">
<g id="ic24/preloader">
<path id="Vector" d="M13.9946 26.7826C6.93629 26.7807 1.21588 21.0562 1.21777 13.9966C1.21967 6.937 6.94313 1.2155 14.0015 1.21739C18.822 1.21869 23.2316 3.93269 25.4052 8.23608C25.7894 9.0305 25.4569 9.986 24.6626 10.3702C23.8888 10.7445 22.9575 10.4393 22.5552 9.67941C20.1697 4.9528 14.4049 3.05529 9.6791 5.44124C4.9533 7.82719 3.05613 13.5931 5.44165 18.3197C7.82716 23.0464 13.592 24.9439 18.3178 22.558C20.139 21.6385 21.6193 20.1619 22.5436 18.3429C22.9438 17.5563 23.9058 17.2432 24.6922 17.6436C25.4787 18.0439 25.7917 19.0061 25.3914 19.7926C23.2191 24.0901 18.8092 26.7948 13.9946 26.7826Z" fill="currentColor"/>
</g>
</svg>
