<svg width="40" height="40" viewBox="0 0 40 40" fill="none" xmlns="http://www.w3.org/2000/svg">
<g id="podcast">
<path id="Vector" d="M13.3333 23.3335C12.4048 22.0954 11.8393 20.6232 11.7003 19.0819C11.5614 17.5406 11.8543 15.991 12.5464 14.6067C13.2385 13.2225 14.3024 12.0584 15.6189 11.2448C16.9354 10.4311 18.4524 10.0002 20 10.0002C21.5476 10.0002 23.0646 10.4311 24.3811 11.2448C25.6976 12.0584 26.7615 13.2225 27.4536 14.6067C28.1457 15.991 28.4386 17.5406 28.2997 19.0819C28.1607 20.6232 27.5952 22.0954 26.6667 23.3335M28.3333 30.8335C31.0091 29.0457 33.0389 26.4448 34.1231 23.4149C35.2073 20.3849 35.2883 17.0867 34.3541 14.0072C33.42 10.9277 31.5203 8.23026 28.9355 6.31325C26.3508 4.39625 23.218 3.36133 20 3.36133C16.7819 3.36133 13.6492 4.39625 11.0645 6.31325C8.4797 8.23026 6.57998 10.9277 5.64586 14.0072C4.71173 17.0867 4.79274 20.3849 5.87691 23.4149C6.96108 26.4448 8.99093 29.0457 11.6667 30.8335M21.6667 18.3335C21.6667 19.254 20.9205 20.0002 20 20.0002C19.0795 20.0002 18.3333 19.254 18.3333 18.3335C18.3333 17.413 19.0795 16.6669 20 16.6669C20.9205 16.6669 21.6667 17.413 21.6667 18.3335ZM18.3333 28.3335C18.3333 27.8915 18.5089 27.4676 18.8215 27.155C19.134 26.8424 19.558 26.6669 20 26.6669C20.442 26.6669 20.8659 26.8424 21.1785 27.155C21.4911 27.4676 21.6667 27.8915 21.6667 28.3335C21.6667 29.1669 21.1 33.3335 20.8333 35.8335C20.8333 36.0545 20.7455 36.2665 20.5893 36.4228C20.433 36.5791 20.221 36.6669 20 36.6669C19.779 36.6669 19.567 36.5791 19.4107 36.4228C19.2545 36.2665 19.1667 36.0545 19.1667 35.8335C18.9 33.3335 18.3333 29.1669 18.3333 28.3335Z" stroke="#71717A" stroke-width="4" stroke-linecap="round" stroke-linejoin="round"/>
</g>
</svg>
