<svg xmlns="http://www.w3.org/2000/svg" width="100%" height="100%" fill="none" viewBox="0 0 40 40">
  <g clip-path="url(#a)">
    <path fill="#FF8C00" d="M33.027 26.888c.104.776-.13 1.112-.391 1.112-.26 0-.626-.31-1.016-.931-.391-.62-.548-1.319-.34-1.68.131-.233.392-.337.756-.207.652.232.913 1.24.99 1.706Zm-3.7 1.706c.807.672 1.042 1.474.625 2.017-.235.31-.626.465-1.069.465-.443 0-.912-.155-1.224-.44-.73-.62-.939-1.654-.47-2.223.183-.232.496-.362.834-.362.443.026.913.207 1.303.543Zm-1.33 6.464c3.44 0 7.167 1.163 11.284 4.809.417.361.964-.078.6-.543-4.066-5.094-7.818-6.05-11.545-6.877-4.56-1.009-6.932-3.542-8.573-6.36-.34-.57-.47-.466-.496.258-.026.88.027 2.043.235 3.18h-.547c-6.541 0-11.857-5.274-11.857-11.763 0-6.49 5.316-11.764 11.857-11.764 6.54 0 11.857 5.274 11.857 11.764 0 .465-.026.93-.078 1.37-.86-.155-2.58-.181-3.779-.078-.443.026-.39.259-.052.31 3.909.699 6.619 3.103 7.218 7.498.026.104.157.13.209.052a17.542 17.542 0 0 0 2.528-9.127C36.858 7.963 28.83 0 18.928 0 9.027 0 1 7.937 1 17.762c0 9.824 8.026 17.787 17.929 17.787 2.632.026 5.238-.491 9.068-.491Z"/>
  </g>
  <defs>
    <clipPath id="a">
      <path fill="#fff" d="M0 0h40v40H0z"/>
    </clipPath>
  </defs>
</svg>
