<svg width="100%" height="100%" viewBox="0 0 40 40" fill="none" xmlns="http://www.w3.org/2000/svg">
<rect width="40" height="40" rx="20" fill="#335CF2"/>
<g clip-path="url(#clip0_282_16444)">
<path d="M26.1616 15.8283C26.1808 15.3586 26.101 14.8903 25.9275 14.454C25.754 14.0178 25.4908 13.6235 25.1553 13.2973L25.1543 13.2964C24.7971 12.9656 24.3782 12.7096 23.9221 12.5433C23.4659 12.3769 22.9816 12.3036 22.4971 12.3275H22.5053H17.5471V19.3272H22.5053C22.989 19.3499 23.4724 19.2757 23.9276 19.1089C24.3828 18.9422 24.8006 18.6861 25.1571 18.3555L25.1543 18.3583C25.4907 18.0312 25.7544 17.636 25.928 17.1986C26.1016 16.7612 26.1813 16.2916 26.1616 15.8209V15.8283ZM29.8343 15.8283C29.8677 16.7413 29.7102 17.6512 29.3722 18.4989C29.0343 19.3466 28.5233 20.1132 27.8725 20.7489L27.8707 20.7508C27.1944 21.3945 26.3969 21.8949 25.5255 22.2224C24.654 22.5499 23.7262 22.6978 22.7971 22.6574H22.8107H17.5425V24.5008H25.3871C25.6507 24.5008 25.8643 24.7163 25.8643 24.9821V25.0023V25.0013V27.0208C25.8643 27.2866 25.6507 27.502 25.3871 27.502H25.3671H25.368H17.5425V30.5188C17.5404 30.6479 17.488 30.771 17.3967 30.8615C17.3054 30.9521 17.1824 31.0028 17.0543 31.0028H14.4416C14.315 31.0028 14.1936 30.9521 14.1041 30.8618C14.0146 30.7716 13.9643 30.6491 13.9643 30.5215V30.5013V30.5023V27.502H10.4743C10.3478 27.502 10.2264 27.4513 10.1369 27.3611C10.0474 27.2708 9.99707 27.1484 9.99707 27.0208V27.0006V27.0015V24.9821C9.99707 24.7163 10.2107 24.5008 10.4743 24.5008H10.4943H10.4934H13.9643V22.6574H10.4743C10.3478 22.6574 10.2264 22.6067 10.1369 22.5165C10.0474 22.4262 9.99707 22.3038 9.99707 22.1762V22.156V19.8231C9.99705 19.694 10.0474 19.57 10.1372 19.4779C10.2269 19.3858 10.349 19.333 10.4771 19.3308H10.4943H10.4934H13.9643V9.48493C13.9643 9.21909 14.178 9.00368 14.4416 9.00368H14.4616H22.8125C23.7403 8.96527 24.6662 9.11451 25.5359 9.4426C26.4055 9.77069 27.2013 10.271 27.8762 10.914L27.8725 10.9103C28.5243 11.5472 29.0358 12.3153 29.3736 13.1647C29.7115 14.0141 29.8682 14.9257 29.8334 15.8402V15.8283H29.8343Z" fill="white"/>
</g>
<defs>
<clipPath id="clip0_282_16444">
<rect width="20" height="22" fill="white" transform="translate(10 9)"/>
</clipPath>
</defs>
</svg>
