<svg xmlns="http://www.w3.org/2000/svg" width="100%" height="100%" fill="none" viewBox="0 0 40 40">
  <g clip-path="url(#a)">
    <path fill="#5B57A2" d="m2.441 8.091 5.108 9.13v5.57l-5.102 9.112L2.441 8.09Z"/>
    <path fill="#D90751" d="m22.053 13.899 4.786-2.934 9.796-.009-14.582 8.933V13.9Z"/>
    <path fill="#FAB718" d="m22.026 8.037.027 12.088-5.12-3.145V-1.09l5.094 9.127Z"/>
    <path fill="#ED6F26" d="m36.636 10.956-9.796.01-4.814-2.929-5.092-9.127 19.701 12.046Z"/>
    <path fill="#63B22F" d="M22.053 31.953V26.09l-5.12-3.086.003 18.087 5.117-9.137Z"/>
    <path fill="#1487C9" d="M26.828 29.047 7.55 17.22 2.442 8.09l34.174 20.944-9.787.012Z"/>
    <path fill="#017F36" d="m16.936 41.09 5.116-9.137 4.774-2.906 9.787-.012L16.936 41.09Z"/>
    <path fill="#984995" d="m2.446 31.903 14.529-8.9-4.885-2.997-4.542 2.785-5.102 9.112Z"/>
  </g>
  <defs>
    <clipPath id="a">
      <path fill="#fff" d="M0 0h40v40H0z"/>
    </clipPath>
  </defs>
</svg>
