<svg width="15" height="16" viewBox="0 0 15 16" fill="none" xmlns="http://www.w3.org/2000/svg">
<path d="M7.63677 1.75H7.36177C7.03025 1.75 6.71231 1.8817 6.47789 2.11612C6.24346 2.35054 6.11177 2.66848 6.11177 3V3.1125C6.11154 3.3317 6.05368 3.54699 5.94398 3.73677C5.83428 3.92655 5.6766 4.08415 5.48677 4.19375L5.21802 4.35C5.028 4.45971 4.81244 4.51747 4.59302 4.51747C4.3736 4.51747 4.15804 4.45971 3.96802 4.35L3.87427 4.3C3.58743 4.13454 3.24667 4.08965 2.92677 4.17519C2.60687 4.26073 2.33399 4.46971 2.16802 4.75625L2.03052 4.99375C1.86506 5.28058 1.82017 5.62135 1.90571 5.94125C1.99125 6.26115 2.20023 6.53403 2.48677 6.7L2.58052 6.7625C2.76944 6.87157 2.92653 7.02818 3.03618 7.21677C3.14582 7.40536 3.2042 7.61936 3.20552 7.8375V8.15625C3.20639 8.37651 3.14905 8.5931 3.0393 8.78407C2.92954 8.97504 2.77127 9.13362 2.58052 9.24375L2.48677 9.3C2.20023 9.46597 1.99125 9.73885 1.90571 10.0588C1.82017 10.3786 1.86506 10.7194 2.03052 11.0062L2.16802 11.2438C2.33399 11.5303 2.60687 11.7393 2.92677 11.8248C3.24667 11.9103 3.58743 11.8655 3.87427 11.7L3.96802 11.65C4.15804 11.5403 4.3736 11.4825 4.59302 11.4825C4.81244 11.4825 5.028 11.5403 5.21802 11.65L5.48677 11.8063C5.6766 11.9159 5.83428 12.0734 5.94398 12.2632C6.05368 12.453 6.11154 12.6683 6.11177 12.8875V13C6.11177 13.3315 6.24346 13.6495 6.47789 13.8839C6.71231 14.1183 7.03025 14.25 7.36177 14.25H7.63677C7.96829 14.25 8.28623 14.1183 8.52065 13.8839C8.75507 13.6495 8.88677 13.3315 8.88677 13V12.8875C8.88699 12.6683 8.94486 12.453 9.05456 12.2632C9.16426 12.0734 9.32193 11.9159 9.51177 11.8063L9.78052 11.65C9.97054 11.5403 10.1861 11.4825 10.4055 11.4825C10.6249 11.4825 10.8405 11.5403 11.0305 11.65L11.1243 11.7C11.4111 11.8655 11.7519 11.9103 12.0718 11.8248C12.3917 11.7393 12.6645 11.5303 12.8305 11.2438L12.968 11C13.1335 10.7132 13.1784 10.3724 13.0928 10.0525C13.0073 9.7326 12.7983 9.45972 12.5118 9.29375L12.418 9.24375C12.2273 9.13362 12.069 8.97504 11.9592 8.78407C11.8495 8.5931 11.7921 8.37651 11.793 8.15625V7.84375C11.7921 7.62349 11.8495 7.4069 11.9592 7.21593C12.069 7.02496 12.2273 6.86638 12.418 6.75625L12.5118 6.7C12.7983 6.53403 13.0073 6.26115 13.0928 5.94125C13.1784 5.62135 13.1335 5.28058 12.968 4.99375L12.8305 4.75625C12.6645 4.46971 12.3917 4.26073 12.0718 4.17519C11.7519 4.08965 11.4111 4.13454 11.1243 4.3L11.0305 4.35C10.8405 4.45971 10.6249 4.51747 10.4055 4.51747C10.1861 4.51747 9.97054 4.45971 9.78052 4.35L9.51177 4.19375C9.32193 4.08415 9.16426 3.92655 9.05456 3.73677C8.94486 3.54699 8.88699 3.3317 8.88677 3.1125V3C8.88677 2.66848 8.75507 2.35054 8.52065 2.11612C8.28623 1.8817 7.96829 1.75 7.63677 1.75Z" stroke="#09090B" stroke-width="0.833333" stroke-linecap="round" stroke-linejoin="round"/>
<path d="M7.49927 9.875C8.5348 9.875 9.37427 9.03553 9.37427 8C9.37427 6.96447 8.5348 6.125 7.49927 6.125C6.46373 6.125 5.62427 6.96447 5.62427 8C5.62427 9.03553 6.46373 9.875 7.49927 9.875Z" stroke="#09090B" stroke-width="0.833333" stroke-linecap="round" stroke-linejoin="round"/>
</svg>
