<svg width="100%" height="100%" viewBox="0 0 40 40" fill="none" xmlns="http://www.w3.org/2000/svg">
<g clip-path="url(#clip0_6675_71419)">
<path d="M29.1834 3.51887C28.1542 4.54811 27.2112 5.66364 26.3731 6.85312L26.108 6.76684C24.5796 6.26762 22.9957 5.95947 21.3994 5.85469C20.9187 5.81772 19.1252 5.81772 18.5397 5.85469C16.7709 5.97179 15.415 6.23681 13.8742 6.773C13.8126 6.79765 13.7571 6.81614 13.7017 6.83463C12.8327 5.65131 11.865 4.54195 10.7988 3.52503C15.9142 0.9057 21.8986 0.59138 27.2544 2.65603C27.8276 2.87174 28.3884 3.12443 28.9369 3.39561L29.1834 3.51887Z" fill="#F00500"/>
<path d="M38.724 26.8957C37.9475 29.1083 36.7826 31.1606 35.2727 32.9479C34.453 33.9093 33.547 34.7907 32.5732 35.5919C30.2928 37.4285 27.6304 38.7412 24.7892 39.4315C21.646 40.1896 18.3672 40.1896 15.224 39.4315C12.3766 38.7412 9.72032 37.4285 7.43996 35.5919C6.46619 34.7907 5.5602 33.9093 4.74051 32.9479C0.395501 27.814 -0.923409 20.7634 1.28916 14.4092C1.70825 13.232 2.23211 12.098 2.86075 11.0195C3.15042 10.5264 3.50789 9.97173 3.68045 9.74369C4.27211 12.2891 4.99936 14.5263 5.27054 15.3337C5.25205 15.3768 5.2274 15.4261 5.20274 15.4692C3.76673 18.3782 2.99018 21.1825 2.80529 24.1654C2.80529 24.2024 2.79912 24.2455 2.79912 24.2825C2.74982 25.1762 2.77447 25.6014 2.92238 26.1623C3.38462 27.9188 4.80831 29.854 7.03936 31.7522C10.6941 34.8585 15.6493 37.1018 19.4026 37.3607C23.3162 37.6257 29.091 35.3392 32.9368 31.9988C33.5408 31.4626 34.1078 30.8956 34.6379 30.2916C35.02 29.8478 35.587 29.0836 35.5438 29.0836C35.5315 29.0836 35.5438 29.0713 35.5685 29.0589C35.587 29.0466 35.6055 29.0281 35.5931 29.0158C35.587 29.0096 35.5993 28.9911 35.6178 28.985C35.6363 28.9788 35.6486 28.9665 35.6424 28.9542C35.6363 28.9418 35.6424 28.9295 35.6671 28.9234C35.6856 28.9172 35.6917 28.8987 35.6856 28.8864C35.6794 28.8741 35.6856 28.8617 35.6979 28.8617C35.7102 28.8617 35.7226 28.8432 35.7226 28.8309C35.7226 28.8186 35.7349 28.8001 35.7472 28.8001C35.7595 28.8001 35.7719 28.7878 35.7719 28.7754C35.7904 28.7261 35.8212 28.6768 35.852 28.6337C35.9444 28.4919 36.3142 27.8325 36.3635 27.7215C36.7148 26.9265 36.9367 26.2177 37.0415 25.509C37.0908 25.17 37.1216 24.5475 37.0969 24.3996C37.0908 24.375 37.0908 24.3318 37.0846 24.264C37.0723 24.1408 37.0661 23.9559 37.0538 23.771C37.0415 23.4936 37.0168 23.1054 36.9983 22.9143C36.7333 20.1162 36.0184 17.8297 34.6625 15.4076C34.607 15.3152 34.5577 15.2227 34.5269 15.1488C34.5146 15.1303 34.5084 15.1118 34.5023 15.0995C34.6933 14.5263 35.476 12.1288 36.0985 9.38623L36.1108 9.39856L36.2033 9.52182C36.3635 9.73753 36.7888 10.3785 36.9798 10.6867C37.8488 12.1042 38.5268 13.6265 39.0075 15.2166C40.123 19.0439 40.0306 23.1239 38.724 26.8957Z" fill="#F00500"/>
<path d="M30.7242 19.5306C30.7057 19.6292 30.416 19.925 30.1263 20.1407C29.2758 20.7632 27.7535 21.3425 26.2066 21.6199C25.3253 21.7801 24.4439 21.8048 24.1789 21.6754C24.0064 21.5891 23.9817 21.5213 24.0433 21.2994C24.1728 20.8372 24.5919 20.3318 25.2451 19.8572C25.578 19.6169 26.9277 18.7972 27.5563 18.452C28.5917 17.885 29.4299 17.5461 29.9969 17.4659C30.1756 17.4413 30.3914 17.4351 30.4592 17.4659C30.5701 17.5091 30.6934 17.8357 30.7427 18.2302C30.7673 18.4397 30.755 19.3642 30.7242 19.5306Z" fill="black"/>
<path d="M16.2039 21.5705C16.1669 21.6445 15.982 21.7246 15.7725 21.7554C15.5629 21.7862 14.922 21.7678 14.5584 21.7246C13.2518 21.552 11.8651 21.1514 10.8543 20.6584C10.2873 20.3811 9.88054 20.1037 9.57854 19.8017L9.40598 19.623L9.38749 19.3888C9.35667 18.982 9.36284 18.3411 9.41214 18.113C9.44296 17.922 9.51075 17.7371 9.6032 17.5707C9.6525 17.509 9.6525 17.509 9.87438 17.509C10.1456 17.509 10.3736 17.5522 10.7434 17.6693C11.5014 17.9035 12.6293 18.4705 14.0037 19.2963C15.1377 19.9743 15.5629 20.3071 15.8896 20.7632C16.1115 21.0467 16.2594 21.4473 16.2039 21.5705Z" fill="black"/>
<path d="M24.9308 30.1497C24.9308 30.1682 24.8568 30.464 24.7644 30.8153C24.6719 31.1666 24.598 31.4502 24.598 31.4625C24.5302 31.4686 24.4686 31.4748 24.4008 31.4686H24.2035L23.9324 32.1096C23.7844 32.4609 23.6489 32.7875 23.6304 32.8369L23.5934 32.9231L23.464 32.7136L23.3345 32.504V30.7969L23.2852 30.8092C23.1805 30.8338 22.4347 30.9324 22.1081 30.9633C20.7584 31.0989 19.4025 31.068 18.0589 30.877C17.8432 30.8462 17.6583 30.8215 17.6521 30.8277C17.646 30.8338 17.6521 31.2283 17.6645 31.7152L17.6829 32.5903L17.5782 32.7506C17.5227 32.8369 17.4672 32.9108 17.4672 32.917C17.4487 32.9355 17.3871 32.8369 17.2454 32.5534C17.0913 32.2575 16.9804 31.9432 16.9002 31.6166L16.8571 31.4378L16.666 31.4501L16.475 31.4686L16.4257 31.2406C16.401 31.1173 16.3702 30.9263 16.3579 30.8215L16.3394 30.6243L16.1791 30.4825C16.0867 30.4024 15.9943 30.3223 15.9758 30.31C15.9449 30.2853 15.9326 30.2422 15.9326 30.2052V30.1312L16.703 30.1374L17.4734 30.1436L17.4981 30.2237L17.5227 30.3038L17.7877 30.3161C17.9356 30.3223 18.404 30.3346 18.8231 30.347L19.5935 30.3654L19.7907 30.0573L19.9941 29.7491H20.253L20.2468 29.1082L20.2406 28.4672L19.9017 28.3193C18.8108 27.8386 18.1698 27.29 17.9295 26.6244C17.8802 26.4888 17.8802 26.4395 17.8678 25.8232C17.8617 25.2131 17.8617 25.1576 17.9048 25.022C17.9911 24.7138 18.2315 24.4735 18.5396 24.3934C18.6444 24.3625 18.9217 24.3625 20.3762 24.3625L22.0896 24.3687L22.2806 24.4612C22.5087 24.5721 22.6135 24.6522 22.7429 24.8248C22.8908 25.022 22.9339 25.1761 22.9339 25.552C22.9339 26.0882 22.897 26.5505 22.8415 26.7354C22.7614 26.988 22.6381 27.2284 22.484 27.4441C22.1759 27.8386 21.615 28.233 21.1035 28.4117L20.9556 28.4672L20.9617 29.1143L20.9679 29.7615L21.1035 29.7738L21.2391 29.7861L21.424 30.0634L21.6027 30.3408H22.4286C22.8846 30.3408 23.2852 30.347 23.3222 30.3531C23.3838 30.3654 23.3962 30.3593 23.4578 30.2545L23.5318 30.1436H24.2405C24.7705 30.1189 24.9308 30.1312 24.9308 30.1497Z" fill="black"/>
<path d="M21.677 31.9185C21.5599 31.9863 21.4798 32.0171 21.4613 32.0048C21.4428 31.9986 21.3565 31.9247 21.264 31.8569L21.0976 31.7213L20.9251 31.9062C20.5491 32.313 20.5368 32.3314 20.4259 32.3376C20.2533 32.3561 20.2163 32.3253 20.0068 32.011C19.8958 31.8507 19.8095 31.7151 19.8095 31.7151C19.8095 31.7151 19.7294 31.7028 19.637 31.6966L19.4644 31.6782L19.3843 31.8446L19.3042 32.011L19.1624 31.9678C19.0515 31.9308 18.9405 31.8877 18.8358 31.8384L18.6509 31.7459V31.3947L20.2903 31.4008L21.9297 31.407L21.9358 31.5734C21.942 31.7706 21.9482 31.7644 21.677 31.9185Z" fill="black"/>
<path d="M37.0849 24.3995C37.0788 24.3749 37.0788 24.3317 37.0726 24.2639C35.5935 24.1037 31.3717 24.0051 27.452 27.2407C27.452 27.2407 26.1885 21.4474 20.2719 21.4474C14.3553 21.4474 12.1612 27.2407 12.1612 27.2407C8.84548 23.6723 4.40802 23.9311 2.80561 24.1653C2.80561 24.2023 2.79944 24.2454 2.79944 24.2824C2.75014 25.1761 2.77479 25.6013 2.92271 26.1622C3.38494 27.9187 4.80863 29.8539 7.03968 31.7521C10.6944 34.8584 15.6496 37.1017 19.4029 37.3606C23.3165 37.6256 29.0914 35.3391 32.9372 31.9987C33.5411 31.4625 34.1081 30.8955 34.6382 30.2915C35.0203 29.8477 35.5873 29.0835 35.5442 29.0835C35.5318 29.0835 35.5442 29.0712 35.5688 29.0589C35.5873 29.0465 35.6058 29.028 35.5935 29.0157C35.5873 29.0095 35.5996 28.9911 35.6181 28.9849C35.6366 28.9787 35.6489 28.9664 35.6428 28.9541C35.6366 28.9418 35.6428 28.9294 35.6674 28.9233C35.6859 28.9171 35.6921 28.8986 35.6859 28.8863C35.6797 28.874 35.6859 28.8616 35.6982 28.8616C35.7106 28.8616 35.7229 28.8431 35.7229 28.8308C35.7229 28.8185 35.7352 28.8 35.7475 28.8C35.7599 28.8 35.7722 28.7877 35.7722 28.7754C35.7907 28.726 35.8215 28.6767 35.8523 28.6336C35.9448 28.4918 36.3145 27.8324 36.3639 27.7215C36.7152 26.9264 36.937 26.2177 37.0418 25.5089C37.0788 25.1699 37.1096 24.5474 37.0849 24.3995ZM21.6771 31.9185C21.56 31.9863 21.4799 32.0172 21.4614 32.0048C21.4429 31.9987 21.3566 31.9247 21.2642 31.8569L21.0978 31.7213L20.9252 31.9062C20.5493 32.313 20.5369 32.3315 20.426 32.3376C20.2534 32.3561 20.2165 32.3253 20.0069 32.011C19.896 31.8508 19.8097 31.7152 19.8097 31.7152C19.8097 31.7152 19.7296 31.7028 19.6371 31.6967L19.4646 31.6782L19.3844 31.8446L19.3043 32.011L19.1626 31.9679C19.0516 31.9309 18.9407 31.8877 18.8359 31.8384L18.651 31.746V31.3947L20.2904 31.4008L21.9298 31.407L21.936 31.5734C21.9421 31.7706 21.9483 31.7645 21.6771 31.9185ZM24.7587 30.8092C24.6662 31.1605 24.5923 31.444 24.5923 31.4563C24.5245 31.4625 24.4628 31.4686 24.3951 31.4625H24.1978L23.9328 32.1096C23.7849 32.4609 23.6493 32.7875 23.6308 32.8369L23.5938 32.9231L23.4644 32.7136L23.335 32.504V30.7969L23.2857 30.8092C23.1809 30.8338 22.4352 30.9324 22.1085 30.9633C20.7588 31.0989 19.4029 31.068 18.0594 30.877C17.8436 30.8462 17.6588 30.8215 17.6526 30.8277C17.6464 30.8338 17.6526 31.2283 17.6649 31.7152L17.6834 32.5903L17.5786 32.7506C17.5232 32.8369 17.4677 32.9108 17.4677 32.917C17.4492 32.9355 17.3876 32.8369 17.2458 32.5533C17.0917 32.2575 16.9808 31.9432 16.9007 31.6166L16.8575 31.4378L16.6665 31.4501L16.4754 31.4686L16.4261 31.2406C16.4015 31.1173 16.3707 30.9263 16.3583 30.8215L16.3398 30.6243L16.1796 30.4825C16.0872 30.4024 15.9947 30.3223 15.9762 30.31C15.9454 30.2853 15.9331 30.2422 15.9331 30.2052V30.1312L16.7035 30.1374L17.4739 30.1436L17.4985 30.2237L17.5232 30.3038L17.7882 30.3161C17.9361 30.3223 18.4045 30.3346 18.8236 30.3469L19.594 30.3654L19.7912 30.0573L19.9946 29.7491H20.2534L20.2473 29.1082L20.2411 28.4672L19.9021 28.3193C18.8113 27.8386 18.1703 27.29 17.9299 26.6244C17.8806 26.4888 17.8806 26.4395 17.8683 25.8232C17.8621 25.2131 17.8621 25.1576 17.9053 25.022C17.9916 24.7138 18.2319 24.4735 18.5401 24.3934C18.6449 24.3625 18.9222 24.3625 20.3767 24.3625L22.09 24.3687L22.2811 24.4612C22.5091 24.5721 22.6139 24.6522 22.7433 24.8248C22.8912 25.022 22.9344 25.1761 22.9344 25.552C22.9344 26.0882 22.8974 26.5505 22.8419 26.7354C22.7618 26.988 22.6386 27.2284 22.4845 27.4441C22.1763 27.8386 21.6155 28.233 21.1039 28.4117L20.956 28.4672L20.9622 29.1143L20.9684 29.7615L21.1039 29.7738L21.2395 29.7861L21.4244 30.0634L21.6032 30.3408H22.429C22.8851 30.3408 23.2857 30.3469 23.3227 30.3531C23.3843 30.3654 23.3966 30.3593 23.4583 30.2545L23.5322 30.1436H24.241C24.7895 30.1436 24.9497 30.1497 24.9497 30.1682C24.9312 30.1621 24.8511 30.464 24.7587 30.8092Z" fill="white"/>
<path d="M37.0353 23.7709C37.023 23.4936 36.9983 23.1053 36.9799 22.9143C36.7148 20.1162 35.9999 17.8297 34.644 15.4076C34.5886 15.3151 34.5393 15.2227 34.5084 15.1487C34.4961 15.1302 34.4899 15.1117 34.4838 15.0994C34.6748 14.5262 35.4576 12.1288 36.08 9.38619C36.9244 5.66366 37.4606 1.31249 35.8212 0.00590616C35.8212 0.00590616 32.9862 -0.20364 29.1897 3.51889C28.1604 4.54813 27.2175 5.66366 26.3793 6.85315L26.1143 6.76686C24.5858 6.26765 23.0019 5.95949 21.4056 5.85472C20.9249 5.81774 19.1314 5.81774 18.5459 5.85472C16.7771 5.97182 15.4212 6.23683 13.8804 6.77302C13.8188 6.79768 13.7633 6.81616 13.7079 6.83465C12.8389 5.65133 11.8713 4.54197 10.805 3.52505C6.85447 -0.215966 3.91466 -0.000257344 3.91466 -0.000257344C2.17666 1.34947 2.76832 5.89786 3.66813 9.74365C4.25979 12.289 4.98704 14.5262 5.25822 15.3336C5.23973 15.3768 5.21508 15.4261 5.19043 15.4692C3.75442 18.3782 2.97786 21.1824 2.79297 24.1654C4.40155 23.9312 8.83284 23.6662 12.1548 27.2408C12.1548 27.2408 14.3488 21.4474 20.2654 21.4474C26.1821 21.4474 27.4455 27.2408 27.4455 27.2408C31.3652 24.0051 35.587 24.1099 37.0661 24.264C37.06 24.1407 37.0476 23.9558 37.0353 23.7709ZM6.42305 13.0101C6.42305 13.0101 4.11804 7.24759 4.7097 3.95647C4.80831 3.40179 4.99321 2.9149 5.28288 2.54511C5.28288 2.54511 7.89604 2.80397 12.1116 7.48795C12.1116 7.48795 11.3104 7.87622 10.238 8.70208C10.238 8.70208 10.2319 8.70825 10.2257 8.70825C9.06087 9.6019 7.5694 11.0194 6.42305 13.0101ZM16.2039 21.5707C16.167 21.6447 15.9821 21.7248 15.7725 21.7556C15.563 21.7864 14.922 21.7679 14.5584 21.7248C13.2518 21.5522 11.8651 21.1516 10.8543 20.6586C10.2873 20.3812 9.88057 20.1039 9.57857 19.8019L9.40601 19.6232L9.38752 19.389C9.3567 18.9822 9.36287 18.3412 9.41217 18.1132C9.44299 17.9221 9.51078 17.7372 9.60323 17.5708C9.65253 17.5092 9.65253 17.5092 9.87441 17.5092C10.1456 17.5092 10.3736 17.5523 10.7434 17.6694C11.5015 17.9036 12.6293 18.4706 14.0037 19.2965C15.1377 19.9744 15.563 20.3073 15.8896 20.7633C16.1115 21.0468 16.2594 21.4474 16.2039 21.5707ZM30.7243 19.5307C30.7058 19.6293 30.4161 19.9251 30.1265 20.1409C29.2759 20.7633 27.7537 21.3427 26.2067 21.62C25.3254 21.7802 24.444 21.8049 24.179 21.6755C24.0065 21.5892 23.9818 21.5214 24.0434 21.2995C24.1729 20.8373 24.592 20.3319 25.2453 19.8574C25.5781 19.617 26.9278 18.7973 27.5564 18.4522C28.5918 17.8852 29.43 17.5462 29.997 17.4661C30.1758 17.4414 30.3915 17.4352 30.4593 17.4661C30.5702 17.5092 30.6935 17.8358 30.7428 18.2303C30.7674 18.4398 30.7551 19.3643 30.7243 19.5307ZM29.7012 8.70208L29.6889 8.69592C28.6535 7.87006 27.8769 7.48178 27.8769 7.48178C31.9507 2.7978 34.4715 2.53895 34.4715 2.53895C34.7488 2.9149 34.9275 3.39563 35.0261 3.95031C35.5993 7.24142 33.3744 13.0101 33.3744 13.0101C32.4438 11.3522 31.1927 9.88541 29.7012 8.70208Z" fill="#FFA409"/>
<path d="M35.0323 3.9503C34.5516 3.88867 32.2774 3.87634 29.7012 8.70207L29.6889 8.69591C28.6535 7.87005 27.877 7.48177 27.877 7.48177C31.9508 2.79779 34.4715 2.53894 34.4715 2.53894C34.755 2.91489 34.9337 3.39562 35.0323 3.9503Z" fill="#FF9300"/>
<path d="M33.3806 13.0102C32.4438 11.3461 31.1988 9.88545 29.7012 8.70213C32.2774 3.8764 34.5454 3.88872 35.0323 3.95035C35.6055 7.24763 33.3806 13.0102 33.3806 13.0102Z" fill="#FF8300"/>
<path d="M35.1247 3.96893C35.0939 3.96276 35.063 3.9566 35.0322 3.95044L35.1247 3.96893Z" fill="#FF8300"/>
<path d="M12.1117 7.48177C12.1117 7.48177 11.3105 7.87005 10.2381 8.69591C10.2381 8.69591 10.2319 8.70207 10.2258 8.70207C7.55714 3.87018 5.20899 3.88867 4.70361 3.9503C4.80222 3.39562 4.98712 2.90873 5.27679 2.53894C5.28295 2.53894 7.89611 2.79779 12.1117 7.48177Z" fill="#FF9300"/>
<path d="M10.2321 8.70213C9.06108 9.60194 7.56961 11.0133 6.42327 13.0102C6.42327 13.0102 4.11825 7.24763 4.70991 3.95035C5.20913 3.88872 7.56344 3.8764 10.2321 8.70213Z" fill="#FF8300"/>
<path d="M4.70994 3.95044C4.67912 3.9566 4.64214 3.96276 4.61133 3.96893L4.70994 3.95044Z" fill="#FF8300"/>
<path d="M27.1435 16.2087C27.1435 16.2087 25.1713 16.332 25.4178 14.7912C25.6643 13.2504 27.2051 13.0655 27.6365 13.1272C28.068 13.1888 29.7936 13.8051 29.4855 15.0994C29.1773 16.3936 28.7459 16.1471 28.4994 16.2087C28.2529 16.2704 27.1435 16.2087 27.1435 16.2087Z" fill="white"/>
<path d="M12.5986 16.2087C12.5986 16.2087 10.6264 16.332 10.8729 14.7912C11.1194 13.2504 12.6602 13.0655 13.0916 13.1272C13.523 13.1888 15.2487 13.8051 14.9406 15.0994C14.6324 16.3936 14.201 16.1471 13.9545 16.2087C13.7079 16.2704 12.5986 16.2087 12.5986 16.2087Z" fill="white"/>
</g>
<defs>
<clipPath id="clip0_6675_71419">
<rect width="40" height="40" fill="white"/>
</clipPath>
</defs>
</svg>
