<svg xmlns="http://www.w3.org/2000/svg" width="100%" height="100%" fill="none" viewBox="0 0 40 40">
  <g clip-path="url(#a)">
    <g clip-path="url(#b)">
      <path fill="#EF0027" d="M20 40c11.046 0 20-8.954 20-20S31.046 0 20 0 0 8.954 0 20s8.954 20 20 20Z"/>
      <path fill="#fff" d="m27.415 12.391-18.04-3.32 9.494 23.89 13.228-16.117-4.682-4.453Zm-.29 1.463 2.76 2.623-7.548 1.367 4.788-3.99Zm-6.427 3.716-7.956-6.598 13.003 2.393-5.047 4.205Zm-.567 1.167-1.297 10.725L11.84 11.86l8.291 6.877v.001Zm1.2.57 8.359-1.513-9.588 11.678 1.23-10.166Z"/>
    </g>
  </g>
  <defs>
    <clipPath id="a">
      <path fill="#fff" d="M0 0h40v40H0z"/>
    </clipPath>
    <clipPath id="b">
      <rect width="40" height="40" fill="#fff" rx="9.051"/>
    </clipPath>
  </defs>
</svg>
