<svg width="19" height="19" viewBox="0 0 19 19" fill="none" xmlns="http://www.w3.org/2000/svg">
<path fill-rule="evenodd" clip-rule="evenodd" d="M0.5 9.5C0.5 4.52944 4.52944 0.5 9.5 0.5C14.4706 0.5 18.5 4.52944 18.5 9.5C18.5 14.4706 14.4706 18.5 9.5 18.5C4.52944 18.5 0.5 14.4706 0.5 9.5ZM10.4 4.09912C10.4 3.60206 9.99706 3.19912 9.5 3.19912C9.00295 3.19912 8.6 3.60206 8.6 4.09912V4.63692C8.13812 4.7319 7.70066 4.91105 7.32893 5.20411C6.68774 5.70964 6.36181 6.45976 6.36181 7.34078C6.36181 8.37057 6.78558 9.08766 7.4353 9.56617C7.94306 9.94013 8.58327 10.1538 9.06275 10.3137C9.11415 10.3309 9.16371 10.3474 9.21105 10.3635L9.30328 10.3947C9.86066 10.5834 10.2295 10.7082 10.4973 10.9054C10.6921 11.0489 10.8382 11.2308 10.8382 11.6815C10.8382 12.0927 10.7047 12.2879 10.5566 12.4046C10.3755 12.5475 10.0403 12.6721 9.5 12.6721C8.85368 12.6721 8.46826 12.3823 8.27948 12.0434C8.03758 11.6092 7.48947 11.4533 7.05525 11.6952C6.62103 11.9371 6.46512 12.4852 6.70703 12.9194C7.0991 13.6232 7.76157 14.1435 8.6 14.3606V14.9C8.6 15.3971 9.00295 15.8 9.5 15.8C9.99706 15.8 10.4 15.3971 10.4 14.9V14.3853C10.8619 14.2904 11.2993 14.1112 11.6711 13.8182C12.3123 13.3126 12.6382 12.5625 12.6382 11.6815C12.6382 10.6517 12.2144 9.93461 11.5647 9.45609C11.0569 9.08213 10.4167 8.8685 9.93725 8.70851C9.88585 8.69136 9.8363 8.67483 9.78895 8.65878L9.69672 8.62755C9.13932 8.43889 8.77054 8.31407 8.50273 8.11683C8.30795 7.97338 8.16181 7.79146 8.16181 7.34078C8.16181 6.92956 8.2953 6.73437 8.44336 6.61764C8.62455 6.47479 8.95966 6.35016 9.5 6.35016C10.1463 6.35016 10.5317 6.63997 10.7205 6.97883C10.9624 7.41305 11.5105 7.56895 11.9448 7.32705C12.379 7.08515 12.5349 6.53705 12.293 6.10282C11.9009 5.39904 11.2384 4.87872 10.4 4.66168V4.09912Z" fill="#71EC6F"/>
</svg>
