<svg width="100%" height="100%" viewBox="0 0 40 40" fill="none" xmlns="http://www.w3.org/2000/svg">
<g clip-path="url(#clip0_6690_69733)">
<path d="M20 40C31.0457 40 40 31.0457 40 20C40 8.9543 31.0457 0 20 0C8.9543 0 0 8.9543 0 20C0 31.0457 8.9543 40 20 40Z" fill="#26A17B"/>
<path d="M19.375 33.75C11.4351 33.75 5 27.3149 5 19.375C5 11.4351 11.4351 5 19.375 5C27.3149 5 33.75 11.4351 33.75 19.375C33.75 23.1875 32.2355 26.8439 29.5396 29.5396C26.8439 32.2355 23.1875 33.75 19.375 33.75ZM18.5186 14.041C17.7321 14.08 16.9886 14.4116 16.434 14.9706C15.8794 15.5297 15.5539 16.276 15.5212 17.0627C15.5212 18.5431 16.4266 19.5096 18.3474 19.9132L19.6931 20.2314C21.0021 20.5373 21.5404 20.9776 21.5404 21.7239C21.5404 22.4703 20.5984 23.2043 19.375 23.2043C18.9405 23.2441 18.5035 23.1609 18.114 22.9639C17.7246 22.767 17.3984 22.4645 17.1729 22.091C17.106 21.9492 17.0005 21.8293 16.8685 21.7449C16.7365 21.6604 16.5833 21.615 16.4266 21.6139H15.7048C15.6493 21.6241 15.5964 21.6453 15.549 21.6761C15.5018 21.7069 15.461 21.7467 15.4291 21.7934C15.3974 21.84 15.375 21.8925 15.3635 21.9478C15.352 22.003 15.3516 22.06 15.3622 22.1154C15.538 22.833 15.9469 23.472 16.5246 23.9325C17.1024 24.393 17.8166 24.6489 18.5554 24.6601V25.6877C18.5554 25.9165 18.6462 26.1359 18.808 26.2976C18.9698 26.4594 19.1891 26.5503 19.4179 26.5503C19.6466 26.5503 19.866 26.4594 20.0278 26.2976C20.1895 26.1359 20.2804 25.9165 20.2804 25.6877V24.6479C21.1156 24.6384 21.9142 24.3032 22.5061 23.7136C23.098 23.1241 23.4363 22.3267 23.4489 21.4915C23.4489 19.9377 22.5559 19.0446 20.4394 18.592L19.216 18.3229C17.9925 18.017 17.4175 17.6132 17.4175 16.9282C17.4175 16.2431 18.1516 15.4846 19.375 15.4846C19.7603 15.4444 20.149 15.5165 20.4941 15.6924C20.8394 15.8681 21.1262 16.1403 21.3202 16.4755C21.3989 16.643 21.5234 16.7847 21.6792 16.8844C21.8351 16.984 22.016 17.0374 22.2011 17.0382H22.7761C22.9067 17.0064 23.0198 16.9244 23.0906 16.81C23.1616 16.6955 23.1847 16.5579 23.1554 16.4266C22.9896 15.764 22.6189 15.1707 22.096 14.7314C21.5731 14.292 20.9249 14.029 20.2436 13.9797V13.1356C20.2436 12.9069 20.1528 12.6875 19.991 12.5258C19.8292 12.364 19.6099 12.2731 19.3811 12.2731C19.1524 12.2731 18.933 12.364 18.7712 12.5258C18.6095 12.6875 18.5186 12.9069 18.5186 13.1356V14.041ZM8.59681 19.375C8.59821 21.6286 9.30757 23.8247 10.6247 25.6534C11.9418 27.482 13.8001 28.8506 15.9373 29.566H16.1085C16.2545 29.566 16.3945 29.508 16.4978 29.4048C16.601 29.3015 16.659 29.1614 16.659 29.0154V28.7585C16.6595 28.5308 16.5922 28.308 16.4659 28.1186C16.3396 27.9291 16.1599 27.7814 15.9495 27.6941C14.2851 27.0224 12.8596 25.8685 11.8557 24.3808C10.8518 22.893 10.3155 21.1392 10.3155 19.3444C10.3155 17.5496 10.8518 15.7959 11.8557 14.308C12.8596 12.8202 14.2851 11.6665 15.9495 10.9947C16.1589 10.9096 16.3382 10.7641 16.4646 10.5767C16.591 10.3893 16.6586 10.1686 16.659 9.94255V9.66117C16.6599 9.57855 16.6408 9.49696 16.6033 9.42331C16.5658 9.34968 16.5111 9.28615 16.4439 9.23812C16.3766 9.1901 16.2989 9.159 16.217 9.14745C16.1353 9.13591 16.0519 9.14426 15.9739 9.17181C13.828 9.8815 11.9603 11.2493 10.636 13.0809C9.31173 14.9125 8.59821 17.1147 8.59681 19.375ZM30.1533 19.375C30.1493 17.1235 29.4386 14.93 28.1217 13.1039C26.8048 11.2777 24.9479 9.91091 22.8127 9.19627H22.6292C22.4767 9.19627 22.3305 9.25686 22.2226 9.36469C22.1149 9.47252 22.0543 9.61877 22.0543 9.77128V9.95479C22.0592 10.1908 22.1323 10.4202 22.2646 10.6156C22.3971 10.811 22.5833 10.9639 22.8005 11.0559C24.461 11.7296 25.8827 12.8835 26.8838 14.3699C27.8848 15.8562 28.4194 17.6075 28.4194 19.3995C28.4194 21.1915 27.8848 22.9428 26.8838 24.4291C25.8827 25.9155 24.461 27.0694 22.8005 27.7431C22.5874 27.836 22.405 27.9879 22.275 28.1806C22.145 28.3735 22.0728 28.5994 22.0665 28.8319V29.0399C22.0675 29.1306 22.09 29.2197 22.1321 29.3001C22.1742 29.3805 22.2348 29.4498 22.3086 29.5023C22.3826 29.5546 22.468 29.5889 22.5578 29.6021C22.6475 29.6154 22.739 29.6071 22.825 29.5782C24.9618 28.8601 26.8189 27.4888 28.1339 25.6579C29.4489 23.827 30.1553 21.6291 30.1533 19.375Z" fill="white"/>
</g>
<defs>
<clipPath id="clip0_6690_69733">
<rect width="40" height="40" fill="white"/>
</clipPath>
</defs>
</svg>
