<svg width="100%" height="100%" viewBox="0 0 40 40" fill="none" xmlns="http://www.w3.org/2000/svg">
<path d="M9.09082 34.3705C10.2771 35.7346 11.7199 36.8474 13.3355 37.6442C14.9512 38.4411 16.7075 38.9062 18.5026 39.0126C20.6473 38.8976 22.6707 37.9728 24.171 36.4217C27.1305 33.8632 30.2375 31.484 33.4758 29.2967L35.294 28.541C36.0427 28.2171 37.3261 27.4614 38.5026 26.058C39.786 24.3308 39.9999 22.4955 39.9999 21.8478C39.8577 19.805 39.1945 17.834 38.0748 16.1262C35.1528 21.3816 30.9651 25.8085 25.899 28.9974C20.8329 32.1863 15.052 34.0343 9.09082 34.3705Z" fill="#0293D6"/>
<path d="M13.1553 3.71141C13.9537 2.86017 14.9154 2.18191 15.9818 1.71792C17.0483 1.25393 18.1972 1.01393 19.3585 1.01254C20.0943 0.962815 20.8325 1.06128 21.5302 1.30222C22.2279 1.54315 22.8712 1.92174 23.4227 2.41595C26.4905 4.60972 30.1447 5.81411 33.9039 5.8705C34.8665 5.97845 36.7916 6.30231 38.0751 7.92163C39.0376 9.21709 39.1446 10.6205 39.1446 11.2682C39.0584 12.9363 38.697 14.5782 38.0751 16.1262L13.1553 3.71141Z" fill="#EBE638"/>
<path d="M9.09091 34.3706C8.12834 34.2626 6.84492 33.9388 5.34759 33.291C3.85027 32.6433 2.03209 31.8876 0.855615 29.8365C0.106952 28.541 0 27.2456 0 26.3819C0.0261115 24.0916 0.575092 21.8381 1.60428 19.7967C2.62822 17.2735 3.3117 14.6229 3.63636 11.916L4.17112 9.75694C4.49198 8.6774 4.70588 7.59785 5.45455 6.51831L6.63102 5.22285C8.57415 3.98971 10.8737 3.457 13.1551 3.71149C10.1003 8.12241 8.13707 13.208 7.42996 18.5423C6.72285 23.8765 7.2924 29.3042 9.09091 34.3706Z" fill="#BAD147"/>
<path d="M13.1553 3.71143C13.0484 3.71143 18.9307 4.03529 22.5671 5.33074L25.5617 6.6262C24.3853 6.51824 16.8986 6.19438 11.2302 11.916C4.0644 19.2569 6.41734 29.2967 6.52429 29.8364C4.86369 27.7276 4.02657 25.0774 4.17135 22.3876C4.31215 18.8175 5.18294 15.3155 6.729 12.1015C8.27507 8.88747 10.463 6.03095 13.1553 3.71143Z" fill="#78B650"/>
<path d="M27.4867 30.3762C29.5101 26.6636 30.4064 22.4321 30.0641 18.2089C29.7218 13.9857 28.1559 9.95749 25.5615 6.62622C28.6595 7.14903 31.509 8.66283 33.6899 10.9444C34.9733 12.0239 36.5776 13.6433 38.0749 16.1262C35.9602 21.7961 32.2871 26.7395 27.4867 30.3762Z" fill="#2F8260"/>
<path d="M30.9091 11.3762C29.1979 8.46145 26.738 7.166 25.6685 6.62623C24.8129 6.41032 16.7915 5.11486 10.6952 11.0524C5.77545 15.8024 5.45459 21.9558 5.45459 23.1433C5.47723 27.2117 6.83079 31.1586 9.30486 34.3705C12.4842 34.9885 15.7512 34.9885 18.9305 34.3705C20.5348 34.0467 24.2781 33.399 27.4867 30.5921C27.9145 30.1603 32.6204 25.7342 32.9412 18.7171C32.9412 17.5296 32.9412 14.5069 30.9091 11.3762ZM27.0589 27.0296C26.0657 28.1201 24.8588 28.9903 23.5148 29.585C22.1707 30.1797 20.7189 30.4859 19.2514 30.4842C18.6097 30.4842 14.3316 30.3762 11.3369 26.8137C10.9091 26.274 8.7701 23.683 8.87705 19.7967C9.09095 14.6149 13.1551 11.5921 14.0107 10.9444C14.7594 10.4046 16.5776 9.21714 19.2514 9.10918C19.8931 9.00123 22.1391 8.89327 24.3851 10.1887C29.3049 12.8876 29.5188 19.3649 29.5188 19.7967C29.5188 20.9842 29.5188 24.2228 27.0589 27.0296Z" fill="#085229"/>
</svg>
