<svg xmlns="http://www.w3.org/2000/svg" width="100%" height="100%" fill="none" viewBox="0 0 40 40">
  <g clip-path="url(#a)">
    <g clip-path="url(#b)">
      <path fill="#26A17B" d="M20 40c11.046 0 20-8.954 20-20S31.046 0 20 0 0 8.954 0 20s8.954 20 20 20Z"/>
      <path fill="#fff" fill-rule="evenodd" d="M22.402 21.73v-.003c-.137.01-.846.052-2.427.052-1.263 0-2.151-.037-2.464-.052v.003c-4.86-.213-8.487-1.06-8.487-2.072 0-1.011 3.627-1.858 8.487-2.075v3.305a37.4 37.4 0 0 0 2.485.076c1.509 0 2.265-.062 2.407-.075v-3.304c4.85.217 8.468 1.063 8.468 2.073 0 1.012-3.618 1.856-8.468 2.071Zm0-4.488v-2.958h6.768v-4.51H10.744v4.51h6.767v2.956c-5.5.253-9.636 1.343-9.636 2.648 0 1.305 4.136 2.394 9.636 2.647v9.478h4.892v-9.48c5.49-.253 9.617-1.341 9.617-2.645s-4.126-2.393-9.618-2.646Z" clip-rule="evenodd"/>
    </g>
  </g>
  <defs>
    <clipPath id="a">
      <path fill="#fff" d="M0 0h40v40H0z"/>
    </clipPath>
    <clipPath id="b">
      <rect width="40" height="40" fill="#fff" rx="9.051"/>
    </clipPath>
  </defs>
</svg>
