<svg width="17" height="16" viewBox="0 0 17 16" fill="none" xmlns="http://www.w3.org/2000/svg">
<g id="wallet">
<path id="Vector" d="M13.5334 8V5.33333H4.20002C3.8464 5.33333 3.50726 5.19286 3.25721 4.94281C3.00716 4.69276 2.86668 4.35362 2.86668 4M2.86668 4C2.86668 3.26667 3.46668 2.66667 4.20002 2.66667H12.2V5.33333M2.86668 4V12C2.86668 12.7333 3.46668 13.3333 4.20002 13.3333H13.5334V10.6667M12.2 8C11.8464 8 11.5073 8.14048 11.2572 8.39052C11.0072 8.64057 10.8667 8.97971 10.8667 9.33333C10.8667 10.0667 11.4667 10.6667 12.2 10.6667H14.8667V8H12.2Z" stroke="#71717A" stroke-linecap="round" stroke-linejoin="round"/>
</g>
</svg>
