<svg width="16" height="16" viewBox="0 0 16 16" fill="none" xmlns="http://www.w3.org/2000/svg">
<g id="circle-dollar-sign" clip-path="url(#clip0_6277_575)">
<path id="Vector" d="M10.6667 5.33333H6.66666C6.31304 5.33333 5.9739 5.4738 5.72385 5.72385C5.4738 5.9739 5.33333 6.31304 5.33333 6.66666C5.33333 7.02028 5.4738 7.35942 5.72385 7.60947C5.9739 7.85952 6.31304 7.99999 6.66666 7.99999H9.33333C9.68695 7.99999 10.0261 8.14047 10.2761 8.39052C10.5262 8.64057 10.6667 8.97971 10.6667 9.33333C10.6667 9.68695 10.5262 10.0261 10.2761 10.2761C10.0261 10.5262 9.68695 10.6667 9.33333 10.6667H5.33333M7.99999 12V3.99999M14.6667 7.99999C14.6667 11.6819 11.6819 14.6667 7.99999 14.6667C4.3181 14.6667 1.33333 11.6819 1.33333 7.99999C1.33333 4.3181 4.3181 1.33333 7.99999 1.33333C11.6819 1.33333 14.6667 4.3181 14.6667 7.99999Z" stroke="#71717A" stroke-linecap="round" stroke-linejoin="round"/>
</g>
<defs>
<clipPath id="clip0_6277_575">
<rect width="16" height="16" fill="white"/>
</clipPath>
</defs>
</svg>
