<svg width="100%" height="100%" viewBox="0 0 40 40" fill="none" xmlns="http://www.w3.org/2000/svg">
<path d="M34.3544 7.43566L29.538 9.89328L6.28025 21.7577C6.20161 21.1569 6.16203 20.5517 6.16179 19.9458C6.16497 17.5284 6.7987 15.1537 8.00021 13.0569C9.20171 10.9602 10.9293 9.2143 13.0119 7.99204C15.0944 6.76978 17.4597 6.11363 19.8733 6.08858C22.287 6.06353 24.6653 6.67045 26.7727 7.84921L29.5295 6.44243L29.9408 6.23227C27.4154 4.39648 24.4323 3.29576 21.3213 3.05175C18.2104 2.80774 15.0926 3.42994 12.3126 4.84958C9.53262 6.26923 7.19868 8.43104 5.56875 11.0961C3.93881 13.7611 3.07634 16.8256 3.07666 19.9509C3.07666 20.3825 3.09302 20.8125 3.12574 21.2407C3.17156 21.8472 3.03727 22.4537 2.73975 22.9839C2.44223 23.5141 1.99479 23.9443 1.45371 24.2204L0 24.9628V28.4255L4.27991 26.2407L5.66593 25.5323L7.03165 24.8357L31.5502 12.3238L34.3053 10.9187L40 8.01193V4.55091L34.3544 7.43566Z" fill="black"/>
<path d="M40 11.4763L8.42444 27.578L5.66932 28.9865L0 31.8797V35.339L5.63039 32.4661L10.4468 30.0085L33.7282 18.1272C33.8069 18.7319 33.8465 19.3411 33.8467 19.9509C33.8452 22.3712 33.2116 24.749 32.009 26.8482C30.8063 28.9475 29.0763 30.6952 26.9907 31.9178C24.9052 33.1404 22.5366 33.7955 20.1201 33.818C17.7036 33.8404 15.3233 33.2295 13.2154 32.0458L13.0462 32.1356L10.0575 33.6611C12.5824 35.4969 15.5648 36.5979 18.6753 36.8425C21.7858 37.0871 24.9033 36.4658 27.6832 35.0471C30.4632 33.6284 32.7975 31.4676 34.4281 28.8035C36.0588 26.1394 36.9223 23.0757 36.9233 19.9509C36.9233 19.5153 36.9064 19.0797 36.8743 18.6492C36.8285 18.043 36.9626 17.4367 37.2598 16.9066C37.557 16.3764 38.004 15.9461 38.5446 15.6695L40 14.9272V11.4763Z" fill="black"/>
</svg>
