<svg width="100%" height="100%" viewBox="0 0 40 40" fill="none" xmlns="http://www.w3.org/2000/svg">
<path d="M34.1404 4H39.9217L27.8904 15.5079C23.5334 19.6732 16.4693 19.6732 12.1092 15.5079L0.0732422 4H5.85918L14.9998 12.7419C16.3316 14.0099 18.1264 14.7207 19.9963 14.7207C21.8662 14.7207 23.661 14.0099 24.9928 12.7419L34.1404 4Z" fill="white"/>
<path d="M5.78516 35.9999H0L12.1094 24.4211C16.4664 20.2558 23.5305 20.2558 27.8906 24.4211L40 35.9999H34.2188L25 27.1871C23.6682 25.9191 21.8734 25.2083 20.0035 25.2083C18.1336 25.2083 16.3388 25.9191 15.007 27.1871L5.78516 35.9999Z" fill="white"/>
</svg>
