<svg width="100%" height="100%" viewBox="0 0 40 40" fill="none" xmlns="http://www.w3.org/2000/svg">
<g clip-path="url(#clip0_6675_71358)">
<path d="M24.2459 39.9999C21.4192 39.9999 19.356 39.3124 18.0563 37.9374C16.8523 36.7735 16.1536 35.1756 16.113 33.493C16.0983 32.9818 16.2157 32.4756 16.4534 32.0241C16.6752 31.6339 16.9955 31.3102 17.3817 31.086C17.8306 30.8599 18.3253 30.7422 18.8269 30.7422C19.3286 30.7422 19.8233 30.8599 20.2722 31.086C20.6577 31.3093 20.9765 31.6334 21.1952 32.0241C21.4399 32.4734 21.5616 32.9804 21.5479 33.493C21.5731 34.1051 21.3992 34.7088 21.0528 35.2118C20.764 35.6223 20.3512 35.9273 19.8763 36.0811C20.3407 36.6781 20.9978 37.0917 21.7331 37.2499C22.5558 37.4912 23.4079 37.6153 24.2645 37.6185C25.3988 37.6285 26.5096 37.2931 27.4522 36.6561C28.4301 35.9585 29.1593 34.9613 29.5318 33.8124C30.0041 32.4449 30.2345 31.0043 30.2127 29.5563C30.2508 28.0466 29.9985 26.5438 29.4699 25.1312C29.0723 24.0013 28.3176 23.0349 27.3222 22.3811C26.3969 21.7899 25.3229 21.4797 24.228 21.4875C23.2739 21.5691 22.354 21.8845 21.5479 22.4062L19.5605 23.4124V22.4062L28.4919 10.3076H16.113V22.8625C16.078 23.7685 16.3154 24.664 16.7938 25.4312C17.0253 25.7656 17.3384 26.0339 17.7028 26.2101C18.0671 26.3864 18.4703 26.4647 18.8734 26.4374C19.6182 26.4222 20.3385 26.1658 20.9282 25.7062C21.5966 25.2115 22.1782 24.6073 22.649 23.9186C22.6913 23.7979 22.7695 23.6932 22.8728 23.6188C22.9557 23.5464 23.0616 23.5065 23.1712 23.5063C23.3862 23.5261 23.5897 23.6135 23.753 23.7562C23.9599 23.9896 24.0725 24.2929 24.0686 24.6061C24.0447 24.8166 24.0075 25.0254 23.9572 25.2311C23.5175 26.3059 22.7803 27.2299 21.8341 27.8927C20.9552 28.4933 19.9172 28.8117 18.856 28.8062C16.1759 28.8062 14.3192 28.2729 13.2859 27.2062C12.7548 26.6167 12.3454 25.9261 12.0819 25.1748C11.8183 24.4236 11.7058 23.6268 11.7509 22.8311V10.3076H5.45459V7.97488H11.7802V2.65612L10.332 1.19272V0H14.5344L16.113 0.825109V7.97488L32.4654 7.92466L34.0934 9.57463L24.0664 19.7489C24.6721 19.5029 25.3101 19.3471 25.9602 19.2864C27.247 19.3433 28.5024 19.7051 29.6251 20.3427C30.9251 20.9667 32.0206 21.9539 32.7819 23.1874C33.464 24.2316 33.9468 25.3953 34.2055 26.6187C34.4182 27.5836 34.5323 28.5681 34.546 29.5565C34.5526 31.4429 34.129 33.3055 33.3081 35.0001C32.5296 36.641 31.2193 37.9641 29.5942 38.7502C27.9308 39.5779 26.1003 40.0056 24.2459 39.9999Z" fill="#2C7DF7"/>
</g>
<defs>
<clipPath id="clip0_6675_71358">
<rect width="40" height="40" fill="white"/>
</clipPath>
</defs>
</svg>
