<svg xmlns="http://www.w3.org/2000/svg" width="100%" height="100%" fill="none" viewBox="0 0 40 40">
  <g clip-path="url(#a)">
    <path fill="#fff" d="M25.41 6.918c-7.343 0-13.252 5.943-13.252 13.208 0 7.325 5.961 13.207 13.252 13.207 7.29 0 13.252-5.943 13.252-13.207 0-7.265-5.961-13.208-13.252-13.208Zm0 18.13c-2.712 0-4.94-2.22-4.94-4.922 0-2.704 2.228-4.923 4.94-4.923s4.94 2.22 4.94 4.923c-.062 2.703-2.228 4.922-4.94 4.922Z"/>
    <path fill="#fff" d="M12.159 10.757V29.97H7.466L1.443 10.757h10.716Z"/>
  </g>
  <defs>
    <clipPath id="a">
      <path fill="#fff" d="M0 0h40v40H0z"/>
    </clipPath>
  </defs>
</svg>
