<svg width="100%" height="100%" viewBox="0 0 40 40" fill="none" xmlns="http://www.w3.org/2000/svg">
<g clip-path="url(#clip0_6675_70534)">
<path d="M20.2089 36.7617C11.0953 36.7617 3.65576 29.3148 3.65576 20.2088C3.65576 11.0952 11.1028 3.65564 20.2089 3.65564C29.3225 3.65564 36.7618 11.1027 36.7618 20.2088C36.7618 29.3224 29.3225 36.7617 20.2089 36.7617Z" fill="url(#paint0_linear_6675_70534)"/>
<path d="M20 40C9 40 0 31 0 20C0 9 9 0 20 0C31 0 40 9 40 20C40 31 31 40 20 40ZM20 4.44704C11.447 4.44704 4.44704 11.447 4.44704 20C4.44704 28.553 11.447 35.553 20 35.553C28.553 35.553 35.553 28.553 35.553 20C35.553 11.447 28.553 4.44704 20 4.44704Z" fill="black"/>
<path d="M19.537 25.4175H28.2037V29.7509H23.0901V33.4175H18.6431V29.8645H13.3098C13.3098 28.4175 13.0901 26.9781 13.4234 25.6448C13.537 24.9781 14.3098 24.3114 14.8703 23.6448C16.537 21.6448 18.2037 19.6448 19.984 17.6448C20.6506 16.8645 21.3173 16.1978 22.0976 15.3115H13.7644V10.9781H18.6506V7.31201H22.984V10.864H28.3173C28.3173 12.3109 28.537 13.7504 28.2037 15.0837C28.0901 15.7504 27.3173 16.417 26.7567 17.0837C25.0901 19.0837 23.4234 21.0837 21.6431 23.0837C20.9762 23.8645 20.3098 24.6371 19.537 25.4175Z" fill="black"/>
</g>
<defs>
<linearGradient id="paint0_linear_6675_70534" x1="8.84325" y1="31.5596" x2="31.6943" y2="8.70855" gradientUnits="userSpaceOnUse">
<stop stop-color="#CF8724"/>
<stop offset="1" stop-color="#FDCE58"/>
</linearGradient>
<clipPath id="clip0_6675_70534">
<rect width="40" height="40" fill="white"/>
</clipPath>
</defs>
</svg>
